<?xml version="1.0" encoding="utf-8"?>
<!-- Generator: Adobe Illustrator 27.5.0, SVG Export Plug-In . SVG Version: 6.00 Build 0)  -->
<svg version="1.1" id="Layer_1" xmlns="http://www.w3.org/2000/svg" xmlns:xlink="http://www.w3.org/1999/xlink" x="0px" y="0px"
	 viewBox="0 0 483.62 134.3" style="enable-background:new 0 0 483.62 134.3;" xml:space="preserve">
<style type="text/css">
	.st0{fill:#FFFFFF;}
	.st1{fill:#FEC131;}
</style>
<g>
	<g>
		<g>
			<g>
				<path class="st0" d="M138.01,30.38h6.51c2.59,0,4.2,1.41,4.2,3.62c0,1.67-0.74,3.04-2.4,3.51v0.04
					c1.61,0.31,1.94,1.49,2.07,2.85c0.12,1.36,0.04,2.87,0.81,3.82h-2.05c-0.52-0.56-0.23-2.05-0.5-3.41
					c-0.19-1.36-0.52-2.5-2.3-2.5h-4.49v5.91h-1.84V30.38z M143.68,36.75c1.72,0,3.2-0.45,3.2-2.46c0-1.36-0.74-2.36-2.46-2.36
					h-4.57v4.82H143.68z"/>
				<path class="st0" d="M158.77,41.03c-0.45,2.21-2.03,3.41-4.28,3.41c-3.2,0-4.71-2.21-4.8-5.27c0-3,1.98-5.21,4.71-5.21
					c3.54,0,4.63,3.31,4.53,5.73h-7.49c-0.06,1.74,0.93,3.29,3.12,3.29c1.36,0,2.3-0.66,2.59-1.96H158.77z M157.18,38.24
					c-0.08-1.57-1.26-2.83-2.89-2.83c-1.72,0-2.75,1.3-2.87,2.83H157.18z"/>
				<path class="st0" d="M168.8,44.21h-1.65v-1.36h-0.04c-0.54,1.1-1.82,1.59-3.2,1.59c-3.08,0-4.61-2.44-4.61-5.27
					s1.51-5.21,4.57-5.21c1.03,0,2.5,0.39,3.23,1.57h0.04v-5.15h1.65V44.21z M164.15,42.99c2.21,0,3.06-1.9,3.06-3.78
					c0-1.98-0.89-3.8-3.16-3.8c-2.25,0-3,1.92-3,3.87C161.06,41.17,162.02,42.99,164.15,42.99z"/>
				<path class="st0" d="M175.44,30.38h4.74c4.26,0,6.64,2.13,6.64,6.58c0,4.63-2.03,7.24-6.64,7.24h-4.74V30.38z M177.28,42.66
					h3.06c1.26,0,4.65-0.35,4.65-5.44c0-3.29-1.22-5.29-4.61-5.29h-3.1V42.66z"/>
				<path class="st0" d="M189.78,32.39h-1.65v-2.01h1.65V32.39z M188.13,34.2h1.65v10.01h-1.65V34.2z"/>
				<path class="st0" d="M192.56,41.05c0.06,1.47,1.34,1.94,2.69,1.94c1.03,0,2.42-0.23,2.42-1.49c0-1.28-1.63-1.49-3.27-1.86
					c-1.63-0.37-3.27-0.91-3.27-2.83c0-2.01,1.99-2.85,3.74-2.85c2.21,0,3.97,0.7,4.11,3.14h-1.65c-0.12-1.28-1.24-1.68-2.32-1.68
					c-0.99,0-2.13,0.27-2.13,1.28c0,1.18,1.74,1.37,3.27,1.74c1.65,0.37,3.27,0.91,3.27,2.85c0,2.38-2.23,3.16-4.26,3.16
					c-2.25,0-4.14-0.91-4.24-3.39H192.56z"/>
				<path class="st0" d="M202.75,34.2h1.99v1.45h-1.99v6.22c0,0.76,0.21,0.89,1.24,0.89h0.76v1.45h-1.26c-1.7,0-2.38-0.35-2.38-2.19
					v-6.37h-1.7V34.2h1.7v-3h1.65V34.2z"/>
				<path class="st0" d="M205.73,34.2h1.55v2.11h0.04c0.79-1.61,1.9-2.4,3.68-2.34v1.74c-2.65,0-3.62,1.51-3.62,4.05v4.45h-1.65
					V34.2z"/>
				<path class="st0" d="M213.21,32.39h-1.65v-2.01h1.65V32.39z M211.56,34.2h1.65v10.01h-1.65V34.2z"/>
				<path class="st0" d="M217.28,34.2h1.99v1.45h-1.99v6.22c0,0.76,0.21,0.89,1.24,0.89h0.76v1.45h-1.26c-1.7,0-2.38-0.35-2.38-2.19
					v-6.37h-1.7V34.2h1.7v-3h1.65V34.2z"/>
				<path class="st0" d="M229.19,44.17c-0.29,0.17-0.66,0.27-1.18,0.27c-0.85,0-1.39-0.46-1.39-1.55c-0.91,1.06-2.13,1.55-3.52,1.55
					c-1.82,0-3.31-0.81-3.31-2.81c0-2.27,1.68-2.75,3.39-3.08c1.82-0.35,3.37-0.23,3.37-1.47c0-1.43-1.18-1.67-2.23-1.67
					c-1.39,0-2.42,0.43-2.5,1.9h-1.65c0.1-2.48,2.01-3.35,4.24-3.35c1.8,0,3.76,0.41,3.76,2.75v5.15c0,0.78,0,1.12,0.52,1.12
					c0.14,0,0.29-0.02,0.5-0.1V44.17z M226.51,39.04c-0.64,0.46-1.88,0.48-2.98,0.68c-1.08,0.19-2.01,0.58-2.01,1.8
					c0,1.08,0.93,1.47,1.94,1.47c2.17,0,3.06-1.36,3.06-2.27V39.04z"/>
				<path class="st0" d="M230.04,30.38h1.65v13.83h-1.65V30.38z"/>
				<path class="st0" d="M146.68,64.96h-1.65V63.6H145c-0.54,1.1-1.82,1.59-3.2,1.59c-3.08,0-4.61-2.44-4.61-5.27
					c0-2.83,1.51-5.21,4.57-5.21c1.03,0,2.5,0.39,3.23,1.57h0.04v-5.15h1.65V64.96z M142.04,63.74c2.21,0,3.06-1.9,3.06-3.78
					c0-1.98-0.89-3.8-3.16-3.8c-2.25,0-3,1.92-3,3.87C138.94,61.92,139.91,63.74,142.04,63.74z"/>
				<path class="st0" d="M156.99,61.78c-0.45,2.21-2.03,3.41-4.28,3.41c-3.19,0-4.71-2.21-4.8-5.27c0-3,1.98-5.21,4.71-5.21
					c3.54,0,4.63,3.31,4.53,5.73h-7.49c-0.06,1.74,0.93,3.29,3.12,3.29c1.36,0,2.3-0.66,2.59-1.96H156.99z M155.4,58.99
					c-0.08-1.57-1.26-2.83-2.89-2.83c-1.72,0-2.75,1.3-2.87,2.83H155.4z"/>
				<path class="st0" d="M162.95,51.13h5.02c1.22,0,2.83,0,3.66,0.5c0.91,0.54,1.63,1.53,1.63,2.89c0,1.47-0.77,2.58-2.05,3.1v0.04
					c1.7,0.35,2.63,1.63,2.63,3.33c0,2.03-1.45,3.97-4.2,3.97h-6.68V51.13z M164.79,57.07h3.68c2.09,0,2.94-0.76,2.94-2.21
					c0-1.92-1.36-2.19-2.94-2.19h-3.68V57.07z M164.79,63.41h4.61c1.59,0,2.59-0.97,2.59-2.48c0-1.8-1.45-2.3-3-2.3h-4.2V63.41z"/>
				<path class="st0" d="M176.92,53.14h-1.65v-2.01h1.65V53.14z M175.27,54.94h1.65v10.01h-1.65V54.94z"/>
				<path class="st0" d="M178.76,51.13h1.65v5.17h0.04c0.54-1.1,1.82-1.59,3.19-1.59c3.08,0,4.61,2.44,4.61,5.27
					c0,2.83-1.51,5.21-4.57,5.21c-1.03,0-2.5-0.39-3.23-1.57h-0.04v1.34h-1.65V51.13z M183.4,56.17c-2.21,0-3.06,1.9-3.06,3.78
					c0,1.98,0.89,3.8,3.16,3.8c2.25,0,3-1.92,3-3.87C186.5,57.99,185.53,56.17,183.4,56.17z"/>
				<path class="st0" d="M189.5,51.13h1.65v13.83h-1.65V51.13z"/>
				<path class="st0" d="M194.67,53.14h-1.65v-2.01h1.65V53.14z M193.03,54.94h1.65v10.01h-1.65V54.94z"/>
				<path class="st0" d="M200.77,54.71c3.18,0,4.86,2.3,4.86,5.25c0,2.92-1.68,5.23-4.86,5.23c-3.18,0-4.86-2.31-4.86-5.23
					C195.91,57.02,197.6,54.71,200.77,54.71z M200.77,63.74c1.72,0,3.12-1.36,3.12-3.78c0-2.44-1.39-3.8-3.12-3.8
					c-1.72,0-3.12,1.36-3.12,3.8C197.66,62.38,199.05,63.74,200.77,63.74z"/>
				<path class="st0" d="M209.08,54.94h1.99v1.45h-1.99v6.22c0,0.76,0.21,0.89,1.24,0.89h0.76v1.45h-1.26
					c-1.7,0-2.38-0.35-2.38-2.19V56.4h-1.7v-1.45h1.7v-3h1.65V54.94z"/>
				<path class="st0" d="M220.66,61.78c-0.45,2.21-2.03,3.41-4.28,3.41c-3.2,0-4.71-2.21-4.8-5.27c0-3,1.98-5.21,4.71-5.21
					c3.54,0,4.63,3.31,4.53,5.73h-7.49c-0.06,1.74,0.93,3.29,3.12,3.29c1.36,0,2.3-0.66,2.59-1.96H220.66z M219.08,58.99
					c-0.08-1.57-1.26-2.83-2.88-2.83c-1.72,0-2.75,1.3-2.87,2.83H219.08z"/>
				<path class="st0" d="M228.55,58.16c-0.25-1.26-1.12-1.99-2.48-1.99c-2.38,0-3.12,1.88-3.12,3.91c0,1.84,0.83,3.66,2.92,3.66
					c1.59,0,2.54-0.93,2.75-2.44h1.68c-0.37,2.44-1.9,3.89-4.42,3.89c-3.06,0-4.69-2.13-4.69-5.11c0-3,1.55-5.36,4.72-5.36
					c2.27,0,4.09,1.06,4.32,3.45H228.55z"/>
				<path class="st0" d="M240.24,64.92c-0.29,0.17-0.66,0.27-1.18,0.27c-0.85,0-1.39-0.47-1.39-1.55c-0.91,1.06-2.13,1.55-3.52,1.55
					c-1.82,0-3.31-0.81-3.31-2.81c0-2.27,1.68-2.75,3.39-3.08c1.82-0.35,3.37-0.23,3.37-1.47c0-1.43-1.18-1.67-2.23-1.67
					c-1.39,0-2.42,0.43-2.5,1.9h-1.65c0.1-2.48,2.01-3.35,4.24-3.35c1.8,0,3.76,0.41,3.76,2.75v5.15c0,0.78,0,1.12,0.52,1.12
					c0.14,0,0.29-0.02,0.5-0.1V64.92z M237.57,59.79c-0.64,0.46-1.88,0.48-2.98,0.68c-1.08,0.19-2.01,0.58-2.01,1.8
					c0,1.08,0.93,1.47,1.94,1.47c2.17,0,3.06-1.36,3.06-2.27V59.79z"/>
				<path class="st0" d="M242,61.8c0.06,1.47,1.34,1.94,2.69,1.94c1.03,0,2.42-0.23,2.42-1.49c0-1.28-1.63-1.49-3.27-1.86
					c-1.63-0.37-3.27-0.91-3.27-2.83c0-2.01,2-2.85,3.74-2.85c2.21,0,3.97,0.7,4.11,3.14h-1.65c-0.12-1.28-1.24-1.68-2.32-1.68
					c-0.99,0-2.13,0.27-2.13,1.28c0,1.18,1.74,1.37,3.27,1.74c1.65,0.37,3.27,0.91,3.27,2.85c0,2.38-2.23,3.16-4.26,3.16
					c-2.25,0-4.14-0.91-4.24-3.39H242z"/>
				<path class="st0" d="M138.01,71.88h6.06c2.75,0,4.24,1.53,4.24,4.09c0,2.56-1.49,4.1-4.24,4.09h-4.22v5.65h-1.84V71.88z
					 M139.85,78.5h3.6c2.07,0.02,3.02-0.89,3.02-2.54c0-1.65-0.95-2.54-3.02-2.54h-3.6V78.5z"/>
				<path class="st0" d="M157.8,85.71h-1.55v-1.59h-0.04c-0.7,1.24-1.82,1.82-3.25,1.82c-2.63,0-3.45-1.51-3.45-3.66v-6.58h1.65
					v6.78c0,1.22,0.77,2.01,2.03,2.01c1.99,0,2.96-1.34,2.96-3.14v-5.66h1.65V85.71z M154.14,71.55h2.11l-2.54,2.77h-1.24
					L154.14,71.55z"/>
				<path class="st0" d="M159.56,71.88h1.65v5.17h0.04c0.54-1.1,1.82-1.59,3.2-1.59c3.08,0,4.61,2.44,4.61,5.27
					c0,2.83-1.51,5.21-4.57,5.21c-1.03,0-2.5-0.39-3.23-1.57h-0.04v1.34h-1.65V71.88z M164.21,76.91c-2.21,0-3.06,1.9-3.06,3.78
					c0,1.98,0.89,3.8,3.16,3.8c2.25,0,3-1.92,3-3.87C167.31,78.73,166.34,76.91,164.21,76.91z"/>
				<path class="st0" d="M170.31,71.88h1.65v13.83h-1.65V71.88z"/>
				<path class="st0" d="M175.48,73.89h-1.65v-2.01h1.65V73.89z M173.84,75.69h1.65v10.01h-1.65V75.69z"/>
				<path class="st0" d="M184.06,78.91c-0.25-1.26-1.12-1.99-2.48-1.99c-2.38,0-3.12,1.88-3.12,3.91c0,1.84,0.83,3.66,2.92,3.66
					c1.59,0,2.54-0.93,2.75-2.44h1.68c-0.37,2.44-1.9,3.89-4.42,3.89c-3.06,0-4.69-2.13-4.69-5.11c0-3,1.55-5.36,4.72-5.36
					c2.27,0,4.09,1.06,4.32,3.45H184.06z"/>
				<path class="st0" d="M195.76,85.67c-0.29,0.17-0.66,0.27-1.18,0.27c-0.85,0-1.39-0.47-1.39-1.55c-0.91,1.06-2.13,1.55-3.52,1.55
					c-1.82,0-3.31-0.81-3.31-2.81c0-2.27,1.68-2.75,3.39-3.08c1.82-0.35,3.37-0.23,3.37-1.47c0-1.43-1.18-1.67-2.23-1.67
					c-1.39,0-2.42,0.43-2.5,1.9h-1.65c0.1-2.48,2.01-3.35,4.24-3.35c1.8,0,3.76,0.41,3.76,2.75v5.15c0,0.78,0,1.12,0.52,1.12
					c0.14,0,0.29-0.02,0.5-0.1V85.67z M193.09,80.54c-0.64,0.47-1.88,0.48-2.98,0.68c-1.08,0.19-2.01,0.58-2.01,1.8
					c0,1.08,0.93,1.47,1.94,1.47c2.17,0,3.06-1.36,3.06-2.27V80.54z"/>
				<path class="st0" d="M197.52,82.55c0.06,1.47,1.34,1.94,2.69,1.94c1.03,0,2.42-0.23,2.42-1.49c0-1.28-1.63-1.49-3.27-1.86
					c-1.63-0.37-3.27-0.91-3.27-2.83c0-2.01,1.99-2.85,3.74-2.85c2.21,0,3.97,0.7,4.11,3.14h-1.65c-0.12-1.28-1.24-1.68-2.32-1.68
					c-0.99,0-2.13,0.27-2.13,1.28c0,1.18,1.74,1.37,3.27,1.74c1.65,0.37,3.27,0.91,3.27,2.85c0,2.38-2.23,3.16-4.26,3.16
					c-2.25,0-4.14-0.91-4.24-3.39H197.52z"/>
				<path class="st0" d="M218.98,85.71h-1.65v-1.36h-0.04c-0.54,1.1-1.82,1.59-3.2,1.59c-3.08,0-4.61-2.44-4.61-5.27
					c0-2.83,1.51-5.21,4.57-5.21c1.03,0,2.5,0.39,3.23,1.57h0.04v-5.15h1.65V85.71z M214.33,84.49c2.21,0,3.06-1.9,3.06-3.78
					c0-1.98-0.89-3.8-3.16-3.8c-2.25,0-3,1.92-3,3.87C211.23,82.67,212.2,84.49,214.33,84.49z"/>
				<path class="st0" d="M229.28,82.53c-0.45,2.21-2.03,3.41-4.28,3.41c-3.19,0-4.71-2.21-4.8-5.27c0-3,1.98-5.21,4.71-5.21
					c3.54,0,4.63,3.31,4.53,5.73h-7.49c-0.06,1.74,0.93,3.29,3.12,3.29c1.36,0,2.3-0.66,2.59-1.96H229.28z M227.69,79.74
					c-0.08-1.57-1.26-2.83-2.89-2.83c-1.72,0-2.75,1.3-2.87,2.83H227.69z"/>
				<path class="st0" d="M138.01,92.63h5.02c1.22,0,2.83,0,3.66,0.5c0.91,0.54,1.63,1.53,1.63,2.89c0,1.47-0.78,2.58-2.05,3.1v0.04
					c1.7,0.35,2.63,1.63,2.63,3.33c0,2.03-1.45,3.97-4.2,3.97h-6.68V92.63z M139.85,98.57h3.68c2.09,0,2.94-0.76,2.94-2.21
					c0-1.92-1.36-2.19-2.94-2.19h-3.68V98.57z M139.85,104.91h4.61c1.59,0,2.59-0.97,2.59-2.48c0-1.8-1.45-2.3-3-2.3h-4.2V104.91z"
					/>
				<path class="st0" d="M154.55,96.21c3.18,0,4.86,2.3,4.86,5.25c0,2.92-1.68,5.23-4.86,5.23s-4.86-2.3-4.86-5.23
					C149.69,98.51,151.37,96.21,154.55,96.21z M154.55,105.23c1.72,0,3.12-1.36,3.12-3.78c0-2.44-1.39-3.8-3.12-3.8
					c-1.72,0-3.12,1.36-3.12,3.8C151.43,103.88,152.82,105.23,154.55,105.23z"/>
				<path class="st0" d="M169.21,105.6c0,3.25-1.49,4.92-4.65,4.92c-1.88,0-4.05-0.75-4.14-2.94h1.65c0.08,1.2,1.51,1.63,2.59,1.63
					c2.15,0,3-1.55,3-3.8v-0.66h-0.04c-0.54,1.22-1.86,1.82-3.12,1.82c-2.98,0-4.47-2.34-4.47-5.07c0-2.36,1.16-5.29,4.63-5.29
					c1.26,0,2.38,0.56,2.98,1.67h0.02v-1.43h1.55V105.6z M167.58,101.24c0-1.76-0.77-3.58-2.85-3.58c-2.11,0-2.96,1.72-2.96,3.64
					c0,1.8,0.66,3.81,2.83,3.81C166.77,105.12,167.58,103.12,167.58,101.24z"/>
				<path class="st0" d="M175.23,96.21c3.18,0,4.86,2.3,4.86,5.25c0,2.92-1.68,5.23-4.86,5.23c-3.18,0-4.86-2.3-4.86-5.23
					C170.37,98.51,172.06,96.21,175.23,96.21z M175.23,105.23c1.72,0,3.12-1.36,3.12-3.78c0-2.44-1.39-3.8-3.12-3.8
					c-1.72,0-3.12,1.36-3.12,3.8C172.11,103.88,173.51,105.23,175.23,105.23z"/>
				<path class="st0" d="M183.54,96.44h1.99v1.45h-1.99v6.22c0,0.76,0.21,0.89,1.24,0.89h0.76v1.45h-1.26
					c-1.7,0-2.38-0.35-2.38-2.19v-6.37h-1.7v-1.45h1.7v-3h1.65V96.44z"/>
				<path class="st0" d="M195.45,106.42c-0.29,0.17-0.66,0.27-1.18,0.27c-0.85,0-1.39-0.47-1.39-1.55
					c-0.91,1.06-2.13,1.55-3.52,1.55c-1.82,0-3.31-0.81-3.31-2.81c0-2.27,1.68-2.75,3.39-3.08c1.82-0.35,3.37-0.23,3.37-1.47
					c0-1.43-1.18-1.67-2.23-1.67c-1.39,0-2.42,0.43-2.5,1.9h-1.65c0.1-2.48,2.01-3.35,4.24-3.35c1.8,0,3.76,0.41,3.76,2.75v5.15
					c0,0.78,0,1.12,0.52,1.12c0.14,0,0.29-0.02,0.5-0.1V106.42z M192.78,101.28c-0.64,0.47-1.88,0.48-2.98,0.68
					c-1.08,0.19-2.01,0.58-2.01,1.8c0,1.08,0.93,1.47,1.94,1.47c2.17,0,3.06-1.36,3.06-2.27V101.28z M191.03,92.3h2.11l-2.54,2.77
					h-1.24L191.03,92.3z"/>
			</g>
			<g>
				<g>
					<g>
						<g>
							<path class="st0" d="M18.93,95.33c0-2.8,0-3.31-0.04-3.9c-0.04-0.63-0.18-0.92-0.79-1.05c-0.15-0.04-0.46-0.06-0.72-0.06
								c-0.2,0-0.31-0.04-0.31-0.17c0-0.13,0.13-0.17,0.4-0.17c0.98,0,2.13,0.06,2.5,0.06c0.9,0,1.62-0.06,2.24-0.06
								c3.33,0,3.92,1.78,3.92,2.76c0,1.51-0.86,2.41-1.88,3.22c1.51,0.51,3.35,1.82,3.35,3.97c0,1.97-1.53,4.01-4.91,4.01
								c-0.22,0-0.75-0.04-1.29-0.06c-0.55-0.04-1.1-0.06-1.38-0.06c-0.2,0-0.61,0-1.05,0.02c-0.42,0-0.9,0.04-1.27,0.04
								c-0.24,0-0.37-0.06-0.37-0.18c0-0.09,0.07-0.15,0.29-0.15c0.28,0,0.5-0.04,0.66-0.07c0.37-0.07,0.46-0.48,0.53-1.01
								c0.09-0.77,0.09-2.23,0.09-3.92V95.33z M21.14,95.64c0,0.15,0.06,0.18,0.13,0.2c0.17,0.04,0.44,0.06,0.86,0.06
								c0.61,0,1.01-0.07,1.32-0.35c0.48-0.39,0.75-1.05,0.75-1.95c0-1.23-0.72-2.85-2.3-2.85c-0.26,0-0.42,0-0.61,0.04
								c-0.13,0.04-0.17,0.11-0.17,0.31V95.64z M23.56,97.11c-0.39-0.28-0.81-0.4-1.53-0.44c-0.33-0.02-0.52-0.02-0.79-0.02
								c-0.07,0-0.11,0.04-0.11,0.13v4.36c0,1.21,0.06,1.53,0.64,1.77c0.5,0.2,0.92,0.22,1.34,0.22c0.83,0,2.23-0.44,2.23-2.35
								C25.35,99.63,24.96,98.09,23.56,97.11z"/>
						</g>
					</g>
					<g>
						<g>
							<path class="st0" d="M30.09,96.6c0-2.37,0-2.81-0.02-3.31c-0.04-0.53-0.2-0.72-0.55-0.83c-0.18-0.06-0.39-0.07-0.59-0.07
								c-0.16,0-0.26-0.04-0.26-0.18c0-0.09,0.13-0.13,0.39-0.13c0.61,0,1.71,0.04,2.17,0.04c0.4,0,1.45-0.04,2.08-0.04
								c0.2,0,0.33,0.04,0.33,0.13c0,0.15-0.09,0.18-0.26,0.18c-0.17,0-0.29,0.02-0.48,0.05c-0.44,0.07-0.57,0.3-0.61,0.85
								c-0.04,0.5-0.04,0.94-0.04,3.31v2.76c0,1.51,0,2.76,0.07,3.42c0.06,0.42,0.17,0.66,0.64,0.74c0.22,0.04,0.59,0.05,0.83,0.05
								c0.18,0,0.26,0.09,0.26,0.17c0,0.11-0.13,0.17-0.31,0.17c-1.07,0-2.17-0.06-2.61-0.06c-0.37,0-1.47,0.06-2.11,0.06
								c-0.2,0-0.31-0.06-0.31-0.17c0-0.07,0.05-0.17,0.26-0.17c0.24,0,0.42-0.02,0.57-0.05c0.33-0.07,0.42-0.29,0.48-0.75
								c0.07-0.64,0.07-1.89,0.07-3.4V96.6z"/>
						</g>
					</g>
					<g>
						<g>
							<path class="st0" d="M36.47,96.6c0-2.37,0-2.81-0.02-3.31c-0.04-0.53-0.18-0.7-0.7-0.85c-0.13-0.04-0.4-0.05-0.64-0.05
								c-0.17,0-0.28-0.05-0.28-0.16c0-0.11,0.13-0.15,0.37-0.15c0.85,0,1.88,0.04,2.19,0.04c0.81,0,1.88-0.04,2.43-0.04
								c2.92,0,3.44,1.51,3.44,2.34c0,1.21-0.9,2.15-1.82,2.74c1.32,0.42,2.98,1.55,2.98,3.38c0,1.67-1.32,3.4-4.3,3.4
								c-0.18,0-0.74-0.02-1.29-0.05c-0.55-0.02-1.12-0.04-1.38-0.04c-0.18,0-0.53,0.02-0.92,0.02c-0.39,0.02-0.79,0.04-1.12,0.04
								c-0.2,0-0.31-0.06-0.31-0.17c0-0.07,0.06-0.17,0.26-0.17c0.24,0,0.42-0.02,0.57-0.05c0.33-0.07,0.42-0.37,0.48-0.83
								c0.07-0.66,0.07-1.89,0.07-3.33V96.6z M38.57,96.86c0,0.13,0.06,0.15,0.11,0.17c0.15,0.04,0.39,0.05,0.75,0.05
								c0.53,0,0.99-0.05,1.27-0.28c0.42-0.33,0.74-0.9,0.74-1.65c0-1.05-0.63-2.35-2.02-2.35c-0.22,0-0.53,0-0.7,0.04
								c-0.11,0.02-0.15,0.09-0.15,0.26V96.86z M38.57,101.45c0,1.03,0.06,1.34,0.57,1.54c0.42,0.17,0.79,0.18,1.16,0.18
								c0.86,0,1.99-0.48,1.99-2.21c0-0.72-0.31-1.95-1.53-2.78c-0.33-0.24-0.77-0.4-1.4-0.4h-0.7c-0.06,0-0.09,0.02-0.09,0.11
								V101.45z"/>
						</g>
					</g>
					<g>
						<g>
							<path class="st0" d="M48.57,99.36c0,2.01,0,3,0.35,3.29c0.28,0.24,0.9,0.33,2.15,0.33c0.87,0,1.49-0.02,1.89-0.44
								c0.2-0.2,0.37-0.64,0.4-0.94c0.02-0.15,0.06-0.24,0.18-0.24c0.11,0,0.15,0.17,0.15,0.35c0,0.18-0.11,1.34-0.24,1.8
								c-0.11,0.35-0.18,0.42-1.03,0.42c-1.16,0-2.1-0.02-2.91-0.05c-0.81-0.02-1.49-0.04-2.15-0.04c-0.18,0-0.53,0.02-0.92,0.02
								c-0.39,0.02-0.79,0.04-1.12,0.04c-0.2,0-0.31-0.06-0.31-0.17c0-0.07,0.06-0.17,0.26-0.17c0.24,0,0.42-0.02,0.57-0.05
								c0.33-0.07,0.42-0.37,0.48-0.83c0.07-0.66,0.07-1.89,0.07-3.33V96.6c0-2.37,0-2.81-0.02-3.31c-0.04-0.53-0.18-0.7-0.7-0.85
								c-0.13-0.04-0.33-0.05-0.53-0.05c-0.18,0-0.28-0.05-0.28-0.16c0-0.11,0.11-0.15,0.35-0.15c0.75,0,1.78,0.04,2.23,0.04
								c0.39,0,1.71-0.04,2.34-0.04c0.24,0,0.35,0.04,0.35,0.15c0,0.11-0.09,0.16-0.29,0.16c-0.18,0-0.44,0.02-0.62,0.05
								c-0.44,0.07-0.57,0.3-0.61,0.85c-0.04,0.5-0.04,0.94-0.04,3.31V99.36z"/>
						</g>
					</g>
					<g>
						<g>
							<path class="st0" d="M53.32,97.98c0-2.67,1.88-6.12,6.79-6.12c4.08,0,6.62,2.26,6.62,5.85c0,3.59-2.61,6.4-6.79,6.4
								C55.23,104.1,53.32,100.76,53.32,97.98z M64.32,98.27c0-3.46-2.08-5.59-4.69-5.59c-1.8,0-3.92,0.96-3.92,4.82
								c0,3.22,1.84,5.76,4.89,5.76C61.74,103.26,64.32,102.72,64.32,98.27z"/>
						</g>
					</g>
					<g>
						<g>
							<path class="st0" d="M68.15,95.33c0-2.8,0-3.31-0.04-3.9c-0.04-0.63-0.18-0.92-0.79-1.05c-0.15-0.04-0.46-0.06-0.72-0.06
								c-0.2,0-0.31-0.04-0.31-0.17c0-0.13,0.13-0.17,0.4-0.17c0.97,0,2.13,0.06,2.52,0.06c0.63,0,2.02-0.06,2.59-0.06
								c1.16,0,2.39,0.11,3.38,0.79c0.51,0.35,1.25,1.29,1.25,2.52c0,1.36-0.57,2.61-2.43,4.12c1.64,2.06,2.91,3.7,3.99,4.84
								c1.03,1.07,1.78,1.2,2.06,1.25c0.2,0.04,0.37,0.05,0.51,0.05c0.15,0,0.22,0.06,0.22,0.15c0,0.15-0.13,0.18-0.35,0.18H78.7
								c-1.03,0-1.49-0.09-1.97-0.35c-0.79-0.42-1.49-1.29-2.52-2.7c-0.74-1.01-1.58-2.26-1.82-2.54c-0.09-0.11-0.2-0.13-0.33-0.13
								l-1.6-0.04c-0.09,0-0.15,0.04-0.15,0.15v0.26c0,1.71,0,3.16,0.09,3.94c0.06,0.53,0.17,0.94,0.72,1.01
								c0.28,0.04,0.68,0.07,0.9,0.07c0.15,0,0.22,0.06,0.22,0.15c0,0.13-0.13,0.18-0.37,0.18c-1.07,0-2.43-0.06-2.7-0.06
								c-0.35,0-1.51,0.06-2.24,0.06c-0.24,0-0.37-0.06-0.37-0.18c0-0.09,0.07-0.15,0.29-0.15c0.28,0,0.5-0.04,0.66-0.07
								c0.37-0.07,0.46-0.48,0.53-1.01c0.09-0.77,0.09-2.23,0.09-3.92V95.33z M70.32,96.78c0,0.2,0.04,0.28,0.17,0.33
								c0.39,0.13,0.94,0.18,1.4,0.18c0.74,0,0.98-0.07,1.31-0.31c0.55-0.4,1.09-1.25,1.09-2.76c0-2.61-1.73-3.37-2.81-3.37
								c-0.46,0-0.79,0.02-0.97,0.07c-0.13,0.04-0.17,0.11-0.17,0.26V96.78z"/>
						</g>
					</g>
					<g>
						<g>
							<path class="st0" d="M81.04,96.6c0-2.37,0-2.81-0.02-3.31c-0.04-0.53-0.18-0.7-0.7-0.85c-0.13-0.04-0.4-0.05-0.64-0.05
								c-0.17,0-0.28-0.05-0.28-0.16c0-0.11,0.13-0.15,0.37-0.15c0.85,0,1.88,0.04,2.34,0.04c0.52,0,4.1,0.02,4.41,0
								c0.29-0.02,0.55-0.07,0.68-0.09c0.09-0.02,0.18-0.07,0.26-0.07c0.09,0,0.11,0.07,0.11,0.15c0,0.11-0.09,0.29-0.13,1.01
								c-0.02,0.17-0.06,0.85-0.09,1.03c-0.02,0.07-0.05,0.26-0.18,0.26c-0.11,0-0.13-0.07-0.13-0.2c0-0.11-0.02-0.39-0.11-0.57
								c-0.13-0.28-0.26-0.5-1.07-0.57c-0.28-0.04-2.21-0.07-2.54-0.07c-0.07,0-0.11,0.05-0.11,0.15v3.86
								c0,0.09,0.02,0.17,0.11,0.17c0.37,0,2.46,0,2.83-0.04c0.39-0.04,0.61-0.09,0.77-0.24c0.13-0.11,0.18-0.2,0.26-0.2
								c0.07,0,0.13,0.07,0.13,0.17c0,0.09-0.04,0.35-0.13,1.14c-0.04,0.31-0.07,0.94-0.07,1.05c0,0.13-0.02,0.35-0.17,0.35
								c-0.11,0-0.15-0.06-0.15-0.13c-0.02-0.17-0.02-0.37-0.05-0.57c-0.09-0.31-0.29-0.55-0.9-0.61C85.54,98.03,83.71,98,83.3,98
								c-0.07,0-0.09,0.07-0.09,0.17v1.25c0,0.53-0.02,1.86,0,2.32c0.04,1.07,0.53,1.3,2.19,1.3c0.42,0,1.1-0.02,1.53-0.2
								c0.4-0.18,0.59-0.51,0.7-1.16c0.04-0.17,0.07-0.24,0.18-0.24c0.13,0,0.15,0.2,0.15,0.37c0,0.35-0.13,1.42-0.22,1.73
								c-0.11,0.4-0.26,0.4-0.86,0.4c-1.21,0-2.19-0.02-2.98-0.05c-0.79-0.02-1.4-0.04-1.88-0.04c-0.18,0-0.53,0.02-0.92,0.02
								c-0.39,0.02-0.79,0.04-1.12,0.04c-0.2,0-0.31-0.06-0.31-0.17c0-0.07,0.05-0.17,0.26-0.17c0.24,0,0.42-0.02,0.57-0.05
								c0.33-0.07,0.42-0.37,0.48-0.83c0.07-0.66,0.07-1.89,0.07-3.33V96.6z"/>
						</g>
					</g>
					<g>
						<g>
							<path class="st0" d="M89.68,96.6c0-2.37,0-2.81-0.02-3.31c-0.04-0.53-0.18-0.7-0.7-0.85c-0.13-0.04-0.4-0.05-0.64-0.05
								c-0.17,0-0.28-0.05-0.28-0.16c0-0.11,0.13-0.15,0.37-0.15c0.85,0,1.88,0.04,2.34,0.04c0.5,0,1.65-0.04,2.63-0.04
								c2.02,0,4.74,0,6.51,1.79c0.81,0.81,1.53,2.11,1.53,3.97c0,1.97-0.85,3.46-1.77,4.36c-0.73,0.74-2.45,1.84-5.43,1.84
								c-0.59,0-1.29-0.06-1.93-0.09c-0.64-0.05-1.23-0.09-1.64-0.09c-0.18,0-0.53,0.02-0.92,0.02c-0.39,0.02-0.79,0.04-1.12,0.04
								c-0.2,0-0.31-0.06-0.31-0.17c0-0.07,0.06-0.17,0.26-0.17c0.24,0,0.42-0.02,0.57-0.05c0.33-0.07,0.42-0.37,0.48-0.83
								c0.07-0.66,0.07-1.89,0.07-3.33V96.6z M91.85,98.33c0,1.66,0.02,2.85,0.04,3.16c0.02,0.39,0.06,0.94,0.18,1.1
								c0.2,0.29,0.85,0.62,2.11,0.62c1.47,0,2.56-0.26,3.53-1.07c1.05-0.86,1.38-2.26,1.38-3.88c0-1.99-0.79-3.27-1.51-3.9
								c-1.49-1.32-3.26-1.49-4.52-1.49c-0.33,0-0.86,0.04-0.99,0.11c-0.15,0.06-0.2,0.13-0.2,0.31c-0.02,0.53-0.02,1.82-0.02,3.05
								V98.33z"/>
						</g>
					</g>
				</g>
				<g>
					<g>
						<g>
							<path class="st0" d="M68.28,61.47h0.02c0.05,0,0.1,0,0.15,0l0.04,0.23h0.87l0.07-0.19l0.01-0.04
								c0.01-0.05,0.04-0.17,0.04-0.33c0-0.23-0.06-0.68-0.48-1.14c-0.45-0.49-1.05-0.59-1.47-0.59c-0.03,0-0.23,0-0.32,0.02
								l-0.19,0.02l-0.05,0.19c-0.01,0.05-0.03,0.15-0.03,0.29c0,0.25,0.06,0.71,0.48,1.13C67.76,61.42,68.1,61.47,68.28,61.47z"/>
						</g>
					</g>
					<g>
						<g>
							<path class="st0" d="M63.62,64.65L64,65.02c0.01,0.01,0.03,0.03,0.06,0.06c-0.05,0.31-0.08,0.69-0.08,1.11v0.12
								c0.02,1.54,0.54,3.21,1.05,4.82c0.44,1.4,0.86,2.73,0.85,3.75c0,0.54-0.12,0.96-0.35,1.27l-0.57,0.77l0.9-0.32
								c0,0,0.17-0.06,0.34-0.11c0.06-0.03,0.11-0.05,0.17-0.07l0.05-0.02c0.01-0.01,0.03-0.01,0.05-0.02l0.01-0.01l0.08-0.03
								l0.01-0.01l0.01,0l0.03-0.02l0-0.01c0.02-0.02,0.04-0.04,0.06-0.08c0.4-0.69,0.6-1.38,0.59-2.11c0-1.25-0.54-2.65-1.47-4.65
								C65.14,68.08,65,66.88,65,66.12c0-0.14,0.01-0.26,0.02-0.36c0.28,0.17,0.56,0.33,0.85,0.48c0.93,0.46,0.96,2,0.96,2.3
								c0,0.19-0.01,0.3-0.01,0.3l-0.02,0.26l1.01,0.23l0.05-0.29l0,0c0.05-0.14,0.08-0.56,0.08-0.88c0-0.32-0.02-0.62-0.07-0.91
								c-0.16-0.89-0.64-1.67-0.79-1.9l-0.08-0.13h-0.15c-0.01,0-0.49-0.01-1.08-0.38c-0.81-0.51-1.38-1.41-1.69-2.66
								c-0.08-0.32-0.12-0.65-0.12-0.97c0-1.16,0.49-2.13,0.91-2.75c0.38-0.57,0.76-0.95,0.9-1.09l0.32-0.29L65,56.53l-0.14,0.13
								l-0.02,0.01c-0.37,0.35-2.23,2.21-2.34,4.82c-0.01,0.08-0.01,0.15-0.01,0.22C62.49,63.72,63.59,64.62,63.62,64.65z"/>
						</g>
					</g>
					<g>
						<g>
							<path class="st0" d="M89.76,37.12c-0.32,0-0.63,0.1-0.89,0.28l0-0.01l-0.1,0.08c-1.29,1-2.93,2.29-4.74,3.71
								c0.15-0.4,0.33-0.87,0.52-1.37l0.59-1.56h0l0.03-0.07c0.07-0.18,0.11-0.37,0.11-0.57c0-0.87-0.71-1.58-1.58-1.58
								c-0.29,0-0.57,0.08-0.82,0.23l0-0.01l-0.06,0.05c-0.96,0.6-1.92,1.23-2.87,1.89l1-3.58l0.02-0.09h0
								c0.02-0.1,0.03-0.21,0.03-0.32c0-0.87-0.7-1.58-1.58-1.58c-0.32,0-0.63,0.09-0.88,0.27l-0.06,0.04
								c-0.98,0.62-1.96,1.3-2.9,2.02l0.5-3.5l0.01-0.1h0c0-0.05,0.01-0.09,0.01-0.14c0-0.87-0.71-1.58-1.58-1.58
								c-0.27,0-0.53,0.07-0.77,0.2l0,0l-0.08,0.05c-2.56,1.57-6.17,4.49-8.86,9.51c-2.68,5-3.84,10.19-4.33,13.68
								c-0.42,0.16-0.82,0.33-1.19,0.5c-0.7-3.27-2.33-9.43-5.54-14.66c-2.93-4.76-6.72-7.57-9.39-9.1l-0.04-0.02l0,0
								c-0.22-0.11-0.46-0.17-0.71-0.17c-0.87,0-1.58,0.71-1.58,1.58c0,0.11,0.01,0.2,0.02,0.29l0.64,3.32
								c-0.85-0.61-1.72-1.18-2.59-1.69l-0.06-0.03l0,0c-0.23-0.13-0.5-0.2-0.77-0.2c-0.87,0-1.57,0.71-1.57,1.58
								c0,0.11,0.01,0.22,0.03,0.33l0.88,3.63c-0.85-0.57-1.72-1.11-2.57-1.62c-0.23-0.12-0.49-0.19-0.75-0.19
								c-0.87,0-1.58,0.71-1.58,1.58c0,0.16,0.02,0.32,0.07,0.47c0.34,1.15,0.8,2.71,1.01,3.43c-4.63-3.92-5.07-4.31-5.1-4.34
								c-0.28-0.23-0.63-0.35-0.99-0.35c-0.87,0-1.58,0.71-1.58,1.58c0,0.12,0.01,0.23,0.04,0.35l0.09,0.4
								c0.09,0.41,0.22,0.94,0.43,1.85c2.45,10.34,7.24,30.21,7.28,30.41c0.09,0.38,0.31,0.72,0.63,0.95L58.5,87.76
								c0.25,0.16,0.53,0.24,0.82,0.24c0.31,0,0.61-0.1,0.87-0.27l23.13-14.77c0.33-0.21,0.59-0.55,0.69-0.94l0.01,0l0.71-3.19
								c0.78-3.49,2.01-9.02,3.24-14.59l0.06-0.28c1.23-5.57,2.5-11.32,3.26-14.83c0.04-0.14,0.06-0.29,0.06-0.44
								C91.34,37.83,90.63,37.12,89.76,37.12z M59.96,68.67l0-0.09c0.05-1.53,0.11-2.57,0.17-3.03c0.12-0.84,0.32-1.59,0.59-2.22
								l0.09-0.22l-0.96-0.65l-0.14,0.31c-0.19,0.4-0.4,0.86-0.6,1.37c-0.23,0.57-0.38,1.9-0.53,4.44l-0.01,0.15l0.02,0.01
								c0.02,0.49,0.03,2.6,0.03,5.33c0,4.03-0.02,9.41-0.03,12.08L36.7,71.36l-6.96-30.67l23.24,18.38
								c-0.91,1.36-1.67,2.89-2.24,4.53l-0.07,0.21l0.93,0.67l0.13-0.37c0.5-1.43,1.27-2.9,2.25-4.26l1.51,1.2l0.17-0.26
								c0.09-0.13,0.19-0.26,0.29-0.4l0.23-0.31l-0.3-0.22c-0.12-0.08-0.5-0.4-1.08-0.88l-0.1-0.08c0.18-0.22,0.38-0.45,0.59-0.68
								c0.5,0.74,0.85,1.26,0.92,1.38c0.02,0.04,0.04,0.06,0.05,0.07l0.07-0.06l0,0l-0.05,0.08c0.04,0.04,0.08,0.06,0.2,0.08
								c0.02,0,0.06-0.01,0.09-0.02l0.22-0.22c0.11-0.15,0.3-0.41,0.34-0.46l0.09-0.15l-0.09-0.14l0,0
								c-0.11-0.22-0.75-1.24-0.91-1.5c0.17-0.16,0.34-0.31,0.52-0.46c0.31,0.7,0.51,1.19,0.59,1.41c0.02,0.06,0.04,0.09,0.05,0.11
								l0,0l0.16,0.4l0.96-0.94l-0.07-0.2h0c-0.01-0.02-0.01-0.04-0.03-0.08c-0.07-0.21-0.28-0.77-0.61-1.56
								c0.18-0.13,0.35-0.24,0.5-0.34c0.24,1.01,0.34,1.57,0.34,1.57l0.09,0.5l1.12-0.94l-0.02-0.15c0,0-0.08-0.66-0.29-1.72
								c0.26-0.14,0.5-0.25,0.75-0.36c-0.11,1.04-0.13,1.64-0.13,1.64l-0.01,0.49l0.44-0.23c0.11-0.05,0.2-0.1,0.29-0.15
								c0.13-0.07,0.25-0.13,0.41-0.21l0.15-0.07l0.02-0.17c0,0,0.06-0.69,0.26-1.85c0.3-0.09,0.57-0.17,0.81-0.23
								c-0.32,0.93-0.48,1.49-0.48,1.49l-0.13,0.47l1.4-0.31l0.05-0.16l0,0c0.01-0.01,0.01-0.02,0.01-0.04
								c0.23-0.66,0.49-1.32,0.68-1.77c0.26-0.04,0.5-0.08,0.73-0.1c-0.53,0.8-0.71,1.29-0.72,1.3l-0.32,0.65l0.52-0.15
								c0.1-0.01,0.18-0.02,0.26-0.03c0.15-0.02,0.27-0.03,0.46-0.03l0.2,0.01l0.07-0.11c0.04-0.05,0.48-0.69,1.31-1.77
								c0.06,0,0.12,0,0.18,0c0.48-0.01,0.91,0.01,1.31,0.03l-0.25,0.57c-0.34,0.25-0.6,0.45-0.78,0.59
								c-0.1,0.07-0.18,0.12-0.23,0.16l-0.58,0.53l0.47-0.01c0.07,0.05,0.12,0.05,0.15,0.05l0.16,0.02c0.21,0.03,0.4,0.05,0.61,0.09
								l0.12,0.02l2.5-1.74c0.11-0.02,0.23-0.05,0.35-0.06c-0.27,0.23-0.57,0.54-0.77,0.9c-0.43,0.74-0.44,1.17-0.44,1.22
								c0,0.08,0.03,0.15,0.08,0.2l0.03,0.03l0.06,0.03c0.22,0.1,0.39,0.19,0.53,0.26l0.24,0.13l0.08-0.12
								c-0.01,0.13-0.01,0.28-0.01,0.46c0,1.11,0.14,2.35,0.41,3.68c0.26,1.25,0.4,2.44,0.4,3.54c0,1.61-0.28,2.65-0.47,3.18
								l-0.6-0.07c-0.02,0-0.04,0-0.07,0c-0.08,0-0.81,0.02-1.38,0.93c-0.49,0.78-0.6,1.37-0.62,1.55l-0.01,0.18l0.17,0.1
								c0.18,0.09,0.42,0.14,0.67,0.14c0.48,0,1.25-0.19,2.14-1.1c0.93-0.94,1.41-2.63,1.42-5.01c0-0.93-0.08-1.92-0.22-2.86
								c-0.37-2.28-0.6-3.94-0.6-5.17c0-0.37,0.02-0.69,0.07-0.95c0.1-0.65,0.32-1.1,0.49-1.37c0.14-0.24,0.26-0.37,0.3-0.41
								c0,0,0.01-0.01,0.02-0.02l0.38-0.36l-0.52-0.13c0,0-0.16-0.04-0.44-0.1L88.6,40.69l-6.2,30.66L59.95,86.24
								c0.01-2.73,0.01-9.47,0.01-13.79v-3.57C59.96,68.79,59.96,68.73,59.96,68.67z M57.26,54.69c-1.37-3.23-4.19-9.2-7.9-13.68
								c-1.46-1.75-3.11-3.39-4.91-4.86l-0.76-4.42c2.21,1.29,5.32,3.62,7.93,7.46c2.63,3.88,4.4,8.56,5.42,11.82
								c0.34,1.07,0.65,2.16,0.92,3.24C57.75,54.36,57.53,54.51,57.26,54.69z M56.15,55.52c-0.22,0.19-0.45,0.38-0.68,0.6
								c-2.1-3.23-6.2-9.1-10.39-12.77c-1.45-1.26-2.95-2.45-4.46-3.54l-1.18-4.66c2.08,1.19,5.09,3.24,7.98,6.37
								c2.38,2.59,4.79,6.2,7.15,10.75C55.12,53.35,55.65,54.45,56.15,55.52z M52.14,53.85c0.82,1.08,1.64,2.2,2.38,3.24
								c-0.26,0.28-0.52,0.59-0.81,0.97c-0.73-0.61-1.61-1.34-2.58-2.16c-3.86-3.24-9.41-7.95-13.87-11.73l-1.63-5.27
								c2.7,1.58,5.3,3.38,7.73,5.36C46.58,46.88,49.91,50.92,52.14,53.85z M70.57,67.22c-0.18,0.41-0.4,0.72-0.64,0.94
								c0.01-0.08,0.02-0.15,0.03-0.24c0.04-0.19,0.1-0.33,0.18-0.43c0.02-0.04,0.04-0.05,0.05-0.06l0.39-0.23
								C70.58,67.21,70.58,67.22,70.57,67.22z M81.39,43.23c-0.72,0.56-1.46,1.14-2.19,1.71c-2.84,2.22-5.96,4.64-8.55,6.64
								c-0.21,0.16-0.41,0.32-0.6,0.47c-0.83-0.09-1.66-0.14-2.46-0.15c0.1-0.12,0.2-0.24,0.31-0.37c1.56-1.86,4.09-4.65,7.29-7.34
								c2.39-2.01,4.96-3.85,7.62-5.48L81.39,43.23z M77.78,39.74c-1.54,1.15-3,2.36-4.34,3.57c-3.53,3.2-6.14,6.47-7.72,8.65
								c-0.38,0.02-0.74,0.06-1.09,0.1c0.19-0.41,0.37-0.8,0.56-1.19c1.16-2.37,3.15-5.88,6.02-9.22c2.25-2.62,4.86-4.86,7.77-6.66
								L77.78,39.74z M73.89,36.31c-1.74,1.53-3.3,3.17-4.62,4.88c-3.15,4.08-5.13,8.29-6.24,11.12c-0.4,0.08-0.75,0.17-1.07,0.25
								c0.11-0.57,0.27-1.23,0.45-1.96c0.71-2.83,2.07-7.04,4.51-11.06c2.41-3.98,5.39-6.46,7.52-7.85L73.89,36.31z"/>
						</g>
					</g>
				</g>
			</g>
			<g>
				<rect x="119.69" y="19.32" class="st0" width="0.76" height="98.85"/>
			</g>
		</g>
	</g>
	<g>
		<g>
			<path class="st0" d="M312.93,72.63c0-4.78-3.93-8.68-8.76-8.68h-10.52v27.72h11.45c4.83,0,8.75-3.9,8.75-8.69
				c0-2.13-0.81-4.2-2.25-5.79C312.48,75.83,312.93,74.26,312.93,72.63 M300.7,69.99h3.47c1.5,0,2.72,1.19,2.72,2.64
				c0,1.46-1.22,2.65-2.72,2.65h-3.47V69.99z M305.1,85.64h-4.4v-5.31h3.47h0.93c1.5,0,2.71,1.2,2.71,2.66
				C307.81,84.45,306.6,85.64,305.1,85.64"/>
		</g>
		<g>
			<path class="st0" d="M328.95,63.44c-7.72,0-14,6.51-14,14.49c0,8.01,6.28,14.5,14,14.5c7.72,0,14-6.49,14-14.5
				C342.95,69.95,336.67,63.44,328.95,63.44 M328.95,84.9c-3.56,0-6.46-3.12-6.46-6.97c0-3.83,2.9-6.96,6.46-6.96
				c3.57,0,6.47,3.12,6.47,6.96C335.42,81.78,332.52,84.9,328.95,84.9"/>
		</g>
		<g>
			<path class="st0" d="M360.17,82.2h3.28v1.52c-1.22,0.77-2.67,1.18-4.13,1.18c-4.09,0-7.41-3.12-7.41-6.97
				c0-3.83,3.33-6.96,7.41-6.96c1.94,0,3.77,0.7,5.16,1.97l0.73,0.67l5.08-5.56l-0.73-0.67c-2.79-2.55-6.42-3.95-10.25-3.95
				c-8.24,0-14.95,6.51-14.95,14.49c0,8,6.71,14.5,14.95,14.5c1.4,0,2.79-0.19,4.13-0.56v0.06h7.53V74.68h-10.82V82.2z"/>
		</g>
		<g>
			<polygon class="st0" points="409.63,72.1 409.63,91.93 418.57,91.93 418.57,72.1 427,72.1 427,63.58 401.17,63.58 401.17,72.1 
							"/>
		</g>
		<g>
			<path class="st0" d="M399,71.1l-0.01-0.03c-2.37-4.53-7-7.63-12.32-7.63c-7.72,0-14,6.51-14,14.49c0,8.01,6.28,14.5,14,14.5
				c7.72,0,14-6.49,14-14.5C400.66,75.47,400.06,73.14,399,71.1 M386.66,84.9c-3.57,0-6.46-3.12-6.46-6.97
				c0-3.83,2.9-6.96,6.46-6.96c3.56,0,6.47,3.12,6.47,6.96C393.13,81.78,390.22,84.9,386.66,84.9"/>
		</g>
		<g>
			<g>
				<polygon class="st0" points="466.55,103.8 449.46,58.35 434.11,58.35 421.55,91.87 430.86,91.87 441.77,64.29 457.25,103.8 				
					"/>
			</g>
			<g>
				<polygon class="st1" points="453.37,43.62 461.75,40.19 450.59,36.2 443.45,17.09 436.05,31.16 420.93,28.06 431.6,39.61 
					426.39,53.59 445.17,46.85 458.87,58.35 				"/>
			</g>
			<g>
				<polygon class="st1" points="422.13,44.37 425.56,42.17 421.45,41.3 420.27,37.2 418.64,40.69 412.41,39.37 417.28,44.39 
					415.78,48.45 420.16,45.64 423.54,48.37 				"/>
			</g>
			<g>
				<polygon class="st1" points="459.21,23.62 462.8,21.31 458.51,20.4 457.27,16.12 455.2,19.69 449.07,18.39 454.15,23.63 
					452.59,27.87 457.16,24.93 460.69,27.79 				"/>
			</g>
		</g>
	</g>
</g>
</svg>
