<svg width="112" height="49" viewBox="0 0 112 49" fill="none" xmlns="http://www.w3.org/2000/svg">
<path d="M58.622 5.67273H61.7506C63.002 5.67273 63.7529 6.35099 63.7529 7.45315C63.7529 8.25858 63.4192 8.93684 62.5849 9.14879C63.3775 9.31836 63.5026 9.86944 63.586 10.5477C63.6277 11.226 63.586 11.9466 63.9615 12.4129H62.9603C62.71 12.1586 62.8352 11.3955 62.71 10.7597C62.6266 10.0814 62.4597 9.53031 61.5837 9.53031H59.4146V12.4129H58.5386V5.67273H58.622ZM61.3334 8.76727C62.1677 8.76727 62.8769 8.55532 62.8769 7.58033C62.8769 6.90207 62.5432 6.43577 61.7089 6.43577H59.498V8.80967H61.3334V8.76727Z" fill="white"/>
<path d="M68.5917 10.8445C68.3832 11.9043 67.6323 12.4977 66.5477 12.4977C65.0043 12.4977 64.2951 11.4379 64.2534 9.91187C64.2534 8.42818 65.2129 7.36841 66.506 7.36841C68.2163 7.36841 68.7169 8.97927 68.6752 10.1662H65.0877C65.046 11.014 65.5466 11.7771 66.5894 11.7771C67.2569 11.7771 67.7157 11.4379 67.8409 10.8021H68.5917V10.8445ZM67.8409 9.48796C67.7991 8.72492 67.2151 8.08906 66.4643 8.08906C65.63 8.08906 65.1294 8.72492 65.0877 9.48796H67.8409Z" fill="white"/>
<path d="M73.4307 12.4129H72.6381V11.7347C72.3878 12.2858 71.7621 12.4977 71.0947 12.4977C69.6347 12.4977 68.8838 11.3108 68.8838 9.91187C68.8838 8.51296 69.593 7.3684 71.0947 7.3684C71.5953 7.3684 72.3044 7.53797 72.6381 8.13144V5.63037H73.4307V12.4129ZM71.1781 11.8195C72.221 11.8195 72.6381 10.8869 72.6381 9.95426C72.6381 8.97926 72.221 8.08905 71.1364 8.08905C70.0518 8.08905 69.6764 9.02165 69.6764 9.99665C69.7181 10.9293 70.177 11.8195 71.1781 11.8195Z" fill="white"/>
<path d="M76.6011 5.67273H78.8954C80.9394 5.67273 82.1074 6.73251 82.1074 8.89445C82.1074 11.1412 81.148 12.4553 78.8954 12.4553H76.6011V5.67273ZM77.5188 11.6499H78.9788C79.6045 11.6499 81.2314 11.4803 81.2314 8.97923C81.2314 7.36837 80.6474 6.39338 79.0205 6.39338H77.5188V11.6499V11.6499Z" fill="white"/>
<path d="M83.5257 6.64772H82.733V5.67273H83.5257V6.64772ZM82.733 7.53793H83.5257V12.4129H82.733V7.53793Z" fill="white"/>
<path d="M84.8605 10.8868C84.9022 11.6075 85.4863 11.8194 86.1537 11.8194C86.6543 11.8194 87.3217 11.6923 87.3217 11.0988C87.3217 10.4629 86.5291 10.3781 85.7365 10.2086C84.944 10.039 84.1514 9.78466 84.1514 8.80967C84.1514 7.83468 85.1108 7.41077 85.9451 7.41077C86.988 7.41077 87.864 7.74989 87.9057 8.93684H87.1131C87.0714 8.30098 86.5291 8.13141 85.9868 8.13141C85.528 8.13141 84.944 8.25859 84.944 8.76728C84.944 9.36075 85.7783 9.44554 86.5291 9.6151C87.3217 9.78466 88.1143 10.039 88.1143 11.014C88.1143 12.1586 87.0297 12.5401 86.0703 12.5401C84.9857 12.5401 84.068 12.1162 84.0262 10.8868H84.8605V10.8868Z" fill="white"/>
<path d="M89.7411 7.53795H90.7006V8.25859H89.7411V11.3107C89.7411 11.6923 89.8246 11.7347 90.3251 11.7347H90.7006V12.4129H90.0748C89.2406 12.4129 88.9485 12.2434 88.9485 11.3531V8.25859H88.1143V7.53795H88.9485V6.05426H89.7411V7.53795V7.53795Z" fill="white"/>
<path d="M91.2011 7.53794H91.952V8.55533C92.3274 7.7499 92.8697 7.36838 93.704 7.41077V8.25859C92.4109 8.25859 91.952 8.97924 91.952 10.251V12.4129H91.1594V7.53794H91.2011Z" fill="white"/>
<path d="M94.7887 6.64772H93.9961V5.67273H94.7887V6.64772ZM93.9961 7.53793H94.7887V12.4129H93.9961V7.53793Z" fill="white"/>
<path d="M96.7492 7.53795H97.7086V8.25859H96.7492V11.3107C96.7492 11.6923 96.8326 11.7347 97.3332 11.7347H97.7086V12.4129H97.0829C96.2486 12.4129 95.9566 12.2434 95.9566 11.3531V8.25859H95.1223V7.53795H95.9566V6.05426H96.7492V7.53795V7.53795Z" fill="white"/>
<path d="M102.464 12.4129C102.339 12.4977 102.13 12.5401 101.88 12.5401C101.463 12.5401 101.213 12.3282 101.213 11.7771C100.796 12.2858 100.17 12.5401 99.5024 12.5401C98.6264 12.5401 97.9172 12.1586 97.9172 11.1836C97.9172 10.0814 98.7098 9.82708 99.5441 9.69991C100.42 9.53035 101.171 9.57274 101.171 8.97926C101.171 8.25862 100.587 8.17383 100.086 8.17383C99.4189 8.17383 98.9184 8.38579 98.8767 9.10644H98.0841C98.1258 7.8771 99.0435 7.45319 100.128 7.45319C101.004 7.45319 101.922 7.66514 101.922 8.8097V11.3108C101.922 11.6923 101.922 11.8619 102.172 11.8619C102.256 11.8619 102.297 11.8619 102.422 11.8195V12.4129H102.464ZM101.171 9.86947C100.879 10.0814 100.253 10.1238 99.7527 10.2086C99.2521 10.2934 98.7932 10.5053 98.7932 11.0988C98.7932 11.6499 99.2521 11.8195 99.711 11.8195C100.754 11.8195 101.171 11.1412 101.171 10.7173V9.86947V9.86947Z" fill="white"/>
<path d="M102.881 5.67273H103.674V12.4129H102.881V5.67273Z" fill="white"/>
<path d="M62.7935 22.5444H62.0009V21.8661C61.7506 22.4172 61.1249 22.6291 60.4575 22.6291C58.9557 22.6291 58.2466 21.4422 58.2466 20.0433C58.2466 18.6444 58.9557 17.4998 60.4575 17.4998C60.958 17.4998 61.6672 17.6694 62.0009 18.2629V15.8042H62.7935V22.5444ZM60.5409 21.9509C61.5837 21.9509 62.0009 21.0183 62.0009 20.0857C62.0009 19.1107 61.5837 18.2205 60.4992 18.2205C59.4146 18.2205 59.0392 19.1531 59.0392 20.1281C59.0809 21.0607 59.5397 21.9509 60.5409 21.9509Z" fill="white"/>
<path d="M67.7575 21.0183C67.5489 22.0781 66.7981 22.6716 65.7135 22.6716C64.1701 22.6716 63.4609 21.6118 63.4192 20.0857C63.4192 18.602 64.3786 17.5422 65.6718 17.5422C67.3821 17.5422 67.8826 19.1531 67.8409 20.34H64.2535C64.2118 21.1879 64.7123 21.9509 65.7552 21.9509C66.4226 21.9509 66.8815 21.6118 67.0066 20.9759H67.7575V21.0183ZM66.9649 19.6618C66.9232 18.8987 66.3392 18.2629 65.5883 18.2629C64.754 18.2629 64.2535 18.8987 64.2118 19.6618H66.9649Z" fill="white"/>
<path d="M70.5941 15.8042H73.0136C73.5976 15.8042 74.3901 15.8042 74.7656 16.0585C75.1827 16.3129 75.5582 16.8216 75.5582 17.4574C75.5582 18.1781 75.1827 18.7292 74.557 18.9835C75.3913 19.1531 75.8084 19.789 75.8084 20.5944C75.8084 21.5694 75.0993 22.5444 73.8061 22.5444H70.5941V15.8042ZM71.5118 18.6868H73.2638C74.265 18.6868 74.6822 18.3053 74.6822 17.627C74.6822 16.6944 74.0147 16.5672 73.2638 16.5672H71.5118V18.6868ZM71.5118 21.7813H73.7227C74.4736 21.7813 74.9741 21.315 74.9741 20.552C74.9741 19.6618 74.265 19.4074 73.5141 19.4074H71.5118V21.7813Z" fill="white"/>
<path d="M77.3102 16.7792H76.5176V15.8042H77.3102V16.7792ZM76.5176 17.6694H77.3102V22.5444H76.5176V17.6694Z" fill="white"/>
<path d="M78.2279 15.8042H79.0205V18.3477C79.2708 17.7966 79.8965 17.5846 80.5639 17.5846C82.0656 17.5846 82.7748 18.7716 82.7748 20.1705C82.7748 21.5694 82.0656 22.7139 80.5639 22.7139C80.0633 22.7139 79.3542 22.5444 79.0205 21.9509V22.5868H78.2279V15.8042ZM80.4388 18.2629C79.3959 18.2629 78.9788 19.1955 78.9788 20.1281C78.9788 21.1031 79.3959 21.9933 80.4805 21.9933C81.5651 21.9933 81.9405 21.0607 81.9405 20.0857C81.9405 19.1531 81.4816 18.2629 80.4388 18.2629Z" fill="white"/>
<path d="M83.4005 15.8042H84.1931V22.5444H83.4005V15.8042Z" fill="white"/>
<path d="M85.8617 16.7792H85.0691V15.8042H85.8617V16.7792ZM85.0691 17.6694H85.8617V22.5444H85.0691V17.6694Z" fill="white"/>
<path d="M88.7817 17.5422C90.3251 17.5422 91.1177 18.6868 91.1177 20.1281C91.1177 21.5694 90.3251 22.6716 88.7817 22.6716C87.2383 22.6716 86.4457 21.527 86.4457 20.1281C86.4457 18.6868 87.28 17.5422 88.7817 17.5422ZM88.7817 21.9509C89.616 21.9509 90.2834 21.2726 90.2834 20.0857C90.2834 18.8987 89.616 18.2205 88.7817 18.2205C87.9474 18.2205 87.28 18.8987 87.28 20.0857C87.3217 21.315 87.9891 21.9509 88.7817 21.9509Z" fill="white"/>
<path d="M92.7863 17.6694H93.7458V18.3901H92.7863V21.4422C92.7863 21.8238 92.8697 21.8662 93.3703 21.8662H93.7458V22.5868H93.1617C92.3275 22.5868 92.0355 22.4172 92.0355 21.527V18.4325H91.2012V17.7118H92.0355V16.2281H92.828V17.6694H92.7863Z" fill="white"/>
<path d="M98.376 21.0183C98.1675 22.0781 97.4166 22.6716 96.332 22.6716C94.7886 22.6716 94.0794 21.6118 94.0377 20.0857C94.0377 18.602 94.9972 17.5422 96.2903 17.5422C98.0006 17.5422 98.5012 19.1531 98.4595 20.34H94.8303C94.7886 21.1879 95.2892 21.9509 96.332 21.9509C96.9995 21.9509 97.4583 21.6118 97.5835 20.9759H98.376V21.0183ZM97.5835 19.6618C97.5417 18.8987 96.9577 18.2629 96.2069 18.2629C95.3726 18.2629 94.872 18.8987 94.8303 19.6618H97.5835Z" fill="white"/>
<path d="M102.172 19.2379C102.047 18.602 101.63 18.2629 100.962 18.2629C99.8361 18.2629 99.4606 19.1955 99.4606 20.1705C99.4606 21.0607 99.8778 21.9509 100.879 21.9509C101.63 21.9509 102.089 21.4846 102.214 20.764H103.006C102.839 21.9509 102.089 22.6716 100.879 22.6716C99.4189 22.6716 98.6263 21.6118 98.6263 20.1705C98.6263 18.6868 99.3772 17.5422 100.879 17.5422C101.963 17.5422 102.84 18.0509 102.965 19.2379H102.172V19.2379Z" fill="white"/>
<path d="M107.804 22.5444C107.678 22.6292 107.47 22.6716 107.22 22.6716C106.802 22.6716 106.552 22.4596 106.552 21.9085C106.135 22.4172 105.509 22.6716 104.842 22.6716C103.966 22.6716 103.257 22.2901 103.257 21.3151C103.257 20.2129 104.049 19.9586 104.884 19.8314C105.76 19.6618 106.51 19.7042 106.51 19.1107C106.51 18.3901 105.926 18.3053 105.426 18.3053C104.758 18.3053 104.258 18.5173 104.216 19.2379H103.424C103.465 18.0086 104.383 17.5847 105.468 17.5847C106.344 17.5847 107.261 17.7966 107.261 18.9412V21.4422C107.261 21.8238 107.261 21.9933 107.512 21.9933C107.595 21.9933 107.637 21.9933 107.762 21.9509V22.5444H107.804ZM106.51 20.0433C106.218 20.2553 105.593 20.2977 105.092 20.3825C104.55 20.4672 104.133 20.6792 104.133 21.2727C104.133 21.8238 104.592 21.9933 105.05 21.9933C106.093 21.9933 106.51 21.3151 106.51 20.8912V20.0433V20.0433Z" fill="white"/>
<path d="M108.638 21.0183C108.68 21.739 109.264 21.9509 109.931 21.9509C110.432 21.9509 111.099 21.8237 111.099 21.2303C111.099 20.5944 110.306 20.5096 109.514 20.34C108.721 20.1705 107.929 19.9161 107.929 18.9411C107.929 17.9661 108.888 17.5422 109.722 17.5422C110.765 17.5422 111.641 17.8814 111.683 19.0683H110.89C110.849 18.4324 110.306 18.2629 109.764 18.2629C109.305 18.2629 108.721 18.3901 108.721 18.8988C108.721 19.4922 109.556 19.577 110.306 19.7466C111.099 19.9161 111.892 20.1705 111.892 21.1455C111.892 22.29 110.807 22.6716 109.848 22.6716C108.763 22.6716 107.845 22.2476 107.804 21.0183H108.638V21.0183Z" fill="white"/>
<path d="M58.6221 25.9357H61.5421C62.877 25.9357 63.5861 26.6987 63.5861 27.928C63.5861 29.1574 62.877 29.9204 61.5421 29.9204H59.4981V32.6758H58.6221V25.9357ZM59.4981 29.1574H61.2501C62.2512 29.1574 62.7101 28.7335 62.7101 27.928C62.7101 27.1226 62.2512 26.6987 61.2501 26.6987H59.4981V29.1574Z" fill="white"/>
<path d="M68.133 32.6758H67.3821V31.9128C67.0484 32.5063 66.5061 32.803 65.797 32.803C64.5456 32.803 64.1284 32.0824 64.1284 31.0226V27.8009H64.921V31.1074C64.921 31.7009 65.2964 32.0824 65.8804 32.0824C66.8399 32.0824 67.2987 31.4465 67.2987 30.5563V27.8009H68.0913V32.6758H68.133ZM66.381 25.7661H67.3821L66.1724 27.1226H65.5884L66.381 25.7661Z" fill="white"/>
<path d="M68.9673 25.9357H69.7599V28.4791C70.0102 27.928 70.6359 27.7161 71.3033 27.7161C72.7634 27.7161 73.5142 28.903 73.5142 30.3019C73.5142 31.7008 72.8051 32.8454 71.3033 32.8454C70.8027 32.8454 70.0936 32.6758 69.7599 32.0824V32.7182H68.9673V25.9357ZM71.2199 28.3943C70.177 28.3943 69.7599 29.3269 69.7599 30.2595C69.7599 31.2345 70.177 32.1248 71.2616 32.1248C72.3462 32.1248 72.7216 31.1922 72.7216 30.2172C72.7216 29.2846 72.2628 28.3943 71.2199 28.3943Z" fill="white"/>
<path d="M74.1399 25.9357H74.9324V32.6758H74.1399V25.9357Z" fill="white"/>
<path d="M76.6427 26.9107H75.8501V25.9357H76.6427V26.9107ZM75.8501 27.8009H76.6427V32.6758H75.8501V27.8009Z" fill="white"/>
<path d="M80.7726 29.3693C80.6474 28.7335 80.2303 28.3944 79.5628 28.3944C78.4365 28.3944 78.0611 29.327 78.0611 30.3019C78.0611 31.1922 78.4783 32.0824 79.4794 32.0824C80.2303 32.0824 80.6891 31.6161 80.8143 30.8954H81.6069C81.44 32.0824 80.6892 32.803 79.4794 32.803C78.0194 32.803 77.2268 31.7432 77.2268 30.3019C77.2268 28.8183 77.9777 27.6737 79.4794 27.6737C80.564 27.6737 81.44 28.1824 81.5652 29.3693H80.7726Z" fill="white"/>
<path d="M86.4039 32.6758C86.2788 32.7606 86.0702 32.803 85.8199 32.803C85.4028 32.803 85.1525 32.591 85.1525 32.04C84.7354 32.5486 84.1096 32.803 83.4422 32.803C82.5662 32.803 81.8571 32.4215 81.8571 31.4465C81.8571 30.3443 82.6496 30.09 83.4839 29.9628C84.3599 29.7932 85.1108 29.8356 85.1108 29.2421C85.1108 28.5215 84.5268 28.4367 84.0262 28.4367C83.3588 28.4367 82.8582 28.6487 82.8165 29.3693H82.0239C82.0656 28.14 82.9834 27.7161 84.0679 27.7161C84.9439 27.7161 85.8616 27.928 85.8616 29.0726V31.5736C85.8616 31.9552 85.8617 32.1247 86.1119 32.1247C86.1954 32.1247 86.2371 32.1247 86.3622 32.0823V32.6758H86.4039ZM85.1108 30.1747C84.8188 30.3867 84.1931 30.4291 83.6925 30.5139C83.1502 30.5987 82.7331 30.8106 82.7331 31.4041C82.7331 31.9128 83.1919 32.1247 83.6508 32.1247C84.6936 32.1247 85.1108 31.4465 85.1108 31.0226V30.1747Z" fill="white"/>
<path d="M87.2382 31.1498C87.2799 31.8704 87.864 32.0824 88.5314 32.0824C89.032 32.0824 89.6994 31.9552 89.6994 31.3617C89.6994 30.7259 88.9068 30.6411 88.1142 30.4715C87.3217 30.3019 86.5291 30.0476 86.5291 29.0726C86.5291 28.0976 87.4885 27.6737 88.3228 27.6737C89.3657 27.6737 90.2417 28.0128 90.2834 29.1998H89.4908C89.4491 28.5639 88.9068 28.3944 88.3645 28.3944C87.9057 28.3944 87.3217 28.5215 87.3217 29.0302C87.3217 29.6237 88.156 29.7085 88.9068 29.878C89.6994 30.0476 90.492 30.3019 90.492 31.2769C90.492 32.4215 89.4074 32.803 88.448 32.803C87.3634 32.803 86.4456 32.3791 86.4039 31.1498H87.2382V31.1498Z" fill="white"/>
<path d="M97.5417 32.6759H96.7492V31.9976C96.4989 32.5487 95.8732 32.7606 95.2057 32.7606C93.704 32.7606 92.9949 31.5737 92.9949 30.1748C92.9949 28.7759 93.704 27.6313 95.2057 27.6313C95.7063 27.6313 96.4154 27.8009 96.7492 28.3944V25.8933H97.5417V32.6759ZM95.3309 32.0824C96.3737 32.0824 96.7909 31.1498 96.7909 30.2172C96.7909 29.2422 96.3737 28.352 95.2892 28.352C94.2046 28.352 93.8291 29.2846 93.8291 30.2596C93.8291 31.1922 94.288 32.0824 95.3309 32.0824Z" fill="white"/>
<path d="M102.506 31.1498C102.297 32.2095 101.546 32.803 100.462 32.803C98.9183 32.803 98.2092 31.7432 98.1675 30.2172C98.1675 28.7335 99.1269 27.6737 100.42 27.6737C102.13 27.6737 102.631 29.2846 102.589 30.4715H99.0018C98.9601 31.3193 99.4606 32.0824 100.504 32.0824C101.171 32.0824 101.63 31.7432 101.755 31.1074H102.506V31.1498ZM101.755 29.7933C101.713 29.0302 101.129 28.3944 100.378 28.3944C99.5441 28.3944 99.0435 29.0302 99.0018 29.7933H101.755Z" fill="white"/>
<path d="M58.6221 36.0671H61.0415C61.6255 36.0671 62.4181 36.0671 62.7935 36.3215C63.2107 36.5758 63.5861 37.0845 63.5861 37.7204C63.5861 38.441 63.2107 38.9921 62.585 39.2465C63.4192 39.416 63.8364 40.0519 63.8364 40.8573C63.8364 41.8323 63.1272 42.8073 61.8341 42.8073H58.6221V36.0671ZM59.4981 38.9921H61.2501C62.2512 38.9921 62.6684 38.6106 62.6684 37.9323C62.6684 36.9997 62.0009 36.8726 61.2501 36.8726H59.4981V38.9921ZM59.4981 42.0867H61.7089C62.4598 42.0867 62.9604 41.6204 62.9604 40.8573C62.9604 39.9671 62.2512 39.7128 61.5004 39.7128H59.4981V42.0867Z" fill="white"/>
<path d="M66.5895 37.8475C68.1329 37.8475 68.9255 38.9921 68.9255 40.4334C68.9255 41.8747 68.1329 42.9769 66.5895 42.9769C65.046 42.9769 64.2534 41.8323 64.2534 40.4334C64.2117 38.9497 65.046 37.8475 66.5895 37.8475ZM66.5895 42.2562C67.4237 42.2562 68.0912 41.5779 68.0912 40.391C68.0912 39.204 67.4237 38.5258 66.5895 38.5258C65.7552 38.5258 65.0877 39.204 65.0877 40.391C65.0877 41.5779 65.7552 42.2562 66.5895 42.2562Z" fill="white"/>
<path d="M73.6393 42.4258C73.6393 44.0366 72.9301 44.8421 71.3867 44.8421C70.469 44.8421 69.4261 44.4605 69.3844 43.4008H70.177C70.2187 43.9942 70.8861 44.2062 71.4284 44.2062C72.4713 44.2062 72.8884 43.4431 72.8884 42.341V42.0019C72.6381 42.5953 72.0124 42.8921 71.3867 42.8921C69.9684 42.8921 69.2175 41.7475 69.2175 40.4334C69.2175 39.2888 69.7598 37.8475 71.4284 37.8475C72.0541 37.8475 72.5547 38.1019 72.8467 38.653V37.9323H73.5976V42.4258H73.6393ZM72.8467 40.3062C72.8467 39.4584 72.4713 38.5682 71.4701 38.5682C70.469 38.5682 70.0518 39.416 70.0518 40.3486C70.0518 41.2388 70.3855 42.2138 71.4284 42.2138C72.4296 42.1714 72.8467 41.1964 72.8467 40.3062Z" fill="white"/>
<path d="M76.5177 37.8475C78.0611 37.8475 78.8537 38.9921 78.8537 40.4334C78.8537 41.8747 78.0611 42.9769 76.5177 42.9769C74.9742 42.9769 74.1816 41.8323 74.1816 40.4334C74.1816 38.9497 74.9742 37.8475 76.5177 37.8475ZM76.5177 42.2562C77.3519 42.2562 78.0194 41.5779 78.0194 40.391C78.0194 39.204 77.3519 38.5258 76.5177 38.5258C75.6834 38.5258 75.0159 39.204 75.0159 40.391C75.0159 41.5779 75.6834 42.2562 76.5177 42.2562Z" fill="white"/>
<path d="M80.5222 37.9323H81.4816V38.653H80.5222V41.7051C80.5222 42.0866 80.6056 42.129 81.1062 42.129H81.4816V42.8497H80.8559C80.0216 42.8497 79.7296 42.6801 79.7296 41.7899V38.6954H78.8953V37.9747H79.7296V36.491H80.5222V37.9323V37.9323Z" fill="white"/>
<path d="M86.2371 42.8073C86.1119 42.8921 85.9034 42.9345 85.6531 42.9345C85.2359 42.9345 84.9856 42.7225 84.9856 42.1715C84.5685 42.6801 83.9428 42.9345 83.2753 42.9345C82.3993 42.9345 81.6902 42.553 81.6902 41.578C81.6902 40.4758 82.4828 40.2215 83.3171 40.0943C84.1931 39.9247 84.9439 39.9671 84.9439 39.3736C84.9439 38.653 84.3599 38.5682 83.8594 38.5682C83.1919 38.5682 82.6913 38.7802 82.6496 39.5008H81.8988C81.9405 38.2715 82.8582 37.8476 83.9428 37.8476C84.8188 37.8476 85.7365 38.0595 85.7365 39.2041V41.7052C85.7365 42.0867 85.7365 42.2562 85.9868 42.2562C86.0702 42.2562 86.1119 42.2562 86.2371 42.2138V42.8073V42.8073ZM84.9439 40.3062C84.6519 40.5182 84.0262 40.5606 83.5256 40.6454C82.9833 40.7302 82.5662 40.9421 82.5662 41.5356C82.5662 42.0443 83.0251 42.2562 83.4839 42.2562C84.5268 42.2562 84.9439 41.578 84.9439 41.1541V40.3062ZM84.1096 35.8976H85.1108L83.9011 37.2541H83.3171L84.1096 35.8976Z" fill="white"/>
<path d="M1.34793 37.3813C1.34793 36.0248 1.34793 35.7704 1.34793 35.4737C1.34793 35.177 1.2645 35.0074 0.972503 34.965C0.889074 34.965 0.763935 34.9226 0.638792 34.9226C0.555363 34.9226 0.471924 34.9226 0.471924 34.8378C0.471924 34.7954 0.513638 34.7531 0.680496 34.7531C1.13936 34.7531 1.72337 34.7954 1.89023 34.7954C2.30737 34.7954 2.68279 34.7531 2.97479 34.7531C4.55994 34.7531 4.85194 35.6433 4.85194 36.1096C4.85194 36.8302 4.43481 37.2965 3.93423 37.678C4.64338 37.9324 5.5611 38.5682 5.5611 39.628C5.5611 40.603 4.81023 41.578 3.18337 41.578C3.05822 41.578 2.80794 41.578 2.55765 41.5356C2.30736 41.5356 2.01537 41.4932 1.89023 41.4932C1.8068 41.4932 1.59822 41.4932 1.38965 41.4932C1.18108 41.4932 0.972503 41.4932 0.76393 41.4932C0.638787 41.4932 0.597075 41.4508 0.597075 41.4084C0.597075 41.366 0.638784 41.3237 0.722213 41.3237C0.847357 41.3237 0.972508 41.3237 1.05594 41.2813C1.22279 41.2389 1.2645 41.0269 1.30621 40.7726C1.34793 40.3911 1.34793 39.6704 1.34793 38.865V37.3813V37.3813ZM2.39079 37.5509C2.39079 37.6356 2.43251 37.6356 2.43251 37.6356C2.51594 37.6356 2.64108 37.678 2.84965 37.678C3.14166 37.678 3.35023 37.6356 3.47537 37.5085C3.72566 37.3389 3.8508 36.9998 3.8508 36.5759C3.8508 35.9824 3.51709 35.177 2.72452 35.177C2.59937 35.177 2.51594 35.177 2.43251 35.177C2.3908 35.177 2.34908 35.2194 2.34908 35.3465V37.5509H2.39079ZM3.55881 38.2715C3.39195 38.1443 3.18337 38.0595 2.80794 38.0595C2.64108 38.0595 2.55765 38.0595 2.43251 38.0595C2.3908 38.0595 2.39079 38.0595 2.39079 38.1019V40.2215C2.39079 40.815 2.43251 40.9845 2.6828 41.0693C2.93309 41.1541 3.14166 41.1965 3.30852 41.1965C3.72566 41.1965 4.3931 40.9845 4.3931 40.0519C4.43481 39.5008 4.26795 38.7378 3.55881 38.2715Z" fill="white"/>
<path d="M6.72919 38.0172C6.72919 36.8726 6.72919 36.6607 6.72919 36.4063C6.72919 36.152 6.64577 36.0672 6.47891 35.9824C6.39549 35.94 6.31205 35.94 6.18691 35.94C6.10348 35.94 6.06177 35.94 6.06177 35.8552C6.06177 35.8128 6.10348 35.7704 6.22862 35.7704C6.52063 35.7704 7.06292 35.7704 7.27149 35.7704C7.48006 35.7704 7.98064 35.7704 8.27264 35.7704C8.35607 35.7704 8.4395 35.7704 8.4395 35.8552C8.4395 35.94 8.39779 35.94 8.31436 35.94C8.23093 35.94 8.18921 35.94 8.06407 35.9824C7.85549 36.0248 7.77206 36.1096 7.77206 36.4063C7.77206 36.6607 7.77206 36.8726 7.77206 38.0172V39.3737C7.77206 40.0943 7.77206 40.7302 7.81378 41.0269C7.85549 41.2389 7.89721 41.3661 8.10579 41.3661C8.23093 41.3661 8.39779 41.4085 8.52293 41.4085C8.60636 41.4085 8.64807 41.4508 8.64807 41.4932C8.64807 41.5356 8.60636 41.578 8.48121 41.578C7.98064 41.578 7.43835 41.5356 7.22977 41.5356C7.06292 41.5356 6.52063 41.578 6.22862 41.578C6.14519 41.578 6.06177 41.5356 6.06177 41.4932C6.06177 41.4508 6.10348 41.4085 6.18691 41.4085C6.31205 41.4085 6.39549 41.4085 6.47891 41.3661C6.64577 41.3237 6.68748 41.2389 6.72919 40.9845C6.77091 40.6878 6.77091 40.0519 6.77091 39.3313V38.0172H6.72919Z" fill="white"/>
<path d="M9.77431 38.0172C9.77431 36.8726 9.77431 36.6607 9.77431 36.4063C9.77431 36.152 9.69087 36.0672 9.44058 35.9824C9.39887 35.9824 9.23202 35.94 9.14859 35.94C9.06516 35.94 9.02344 35.8976 9.02344 35.8552C9.02344 35.8128 9.06516 35.7704 9.19031 35.7704C9.60745 35.7704 10.108 35.7704 10.2332 35.7704C10.6086 35.7704 11.1509 35.7704 11.4012 35.7704C12.8195 35.7704 13.0697 36.4911 13.0697 36.915C13.0697 37.5085 12.6526 37.9748 12.1937 38.2715C12.8195 38.4835 13.612 39.0346 13.612 39.9248C13.612 40.7302 12.9863 41.578 11.5263 41.578C11.4429 41.578 11.1926 41.578 10.9006 41.5356C10.6503 41.5356 10.3583 41.5356 10.2332 41.5356C10.1497 41.5356 9.98288 41.5356 9.77431 41.5356C9.60745 41.5356 9.39887 41.5356 9.23201 41.5356C9.14858 41.5356 9.06515 41.4932 9.06515 41.4509C9.06515 41.4085 9.10688 41.3661 9.19031 41.3661C9.31545 41.3661 9.39887 41.3661 9.4823 41.3237C9.64916 41.2813 9.69087 41.1541 9.73259 40.8998C9.7743 40.5606 9.77431 39.9672 9.77431 39.2889V38.0172V38.0172ZM10.7755 38.1443C10.7755 38.1867 10.8172 38.2291 10.8172 38.2291C10.9006 38.2291 10.984 38.2715 11.1926 38.2715C11.4429 38.2715 11.6515 38.2291 11.8183 38.1443C12.0269 37.9748 12.152 37.7204 12.152 37.3389C12.152 36.8302 11.86 36.1944 11.1926 36.1944C11.0675 36.1944 10.9423 36.1944 10.8589 36.1944C10.8172 36.1944 10.7755 36.2367 10.7755 36.3215V38.1443ZM10.7755 40.3911C10.7755 40.8998 10.8172 41.0269 11.0675 41.1541C11.276 41.2389 11.4429 41.2389 11.6097 41.2389C12.0269 41.2389 12.5692 41.0269 12.5692 40.1791C12.5692 39.84 12.4023 39.2465 11.8183 38.8226C11.6515 38.6954 11.4429 38.6107 11.1509 38.6107H10.8172C10.7755 38.6107 10.7755 38.6106 10.7755 38.653V40.3911V40.3911Z" fill="white"/>
<path d="M15.6143 39.3737C15.6143 40.3486 15.6143 40.8573 15.7812 40.9845C15.9063 41.1117 16.1983 41.1541 16.8241 41.1541C17.2412 41.1541 17.5332 41.1541 17.7418 40.9421C17.8252 40.8573 17.9086 40.6454 17.9504 40.4758C17.9504 40.391 17.9921 40.3486 18.0338 40.3486C18.0755 40.3486 18.1172 40.4334 18.1172 40.5182C18.1172 40.603 18.0755 41.1541 17.9921 41.4084C17.9504 41.578 17.9086 41.6204 17.4915 41.6204C16.9492 41.6204 16.4903 41.6204 16.1149 41.578C15.7395 41.578 15.4058 41.578 15.0721 41.578C14.9886 41.578 14.8218 41.578 14.6132 41.578C14.4463 41.578 14.2378 41.578 14.0709 41.578C13.9875 41.578 13.9041 41.5356 13.9041 41.4932C13.9041 41.4508 13.9458 41.4084 14.0292 41.4084C14.1543 41.4084 14.2378 41.4084 14.3212 41.366C14.4881 41.3236 14.5298 41.1965 14.5715 40.9421C14.6132 40.603 14.6132 40.0095 14.6132 39.3313V37.9748C14.6132 36.8302 14.6132 36.6182 14.6132 36.3639C14.6132 36.1095 14.5298 36.0248 14.2795 35.94C14.2378 35.94 14.1126 35.8976 14.0292 35.8976C13.9458 35.8976 13.9041 35.8552 13.9041 35.8128C13.9041 35.7704 13.9458 35.728 14.0709 35.728C14.4463 35.728 14.9469 35.728 15.1555 35.728C15.3223 35.728 15.9898 35.728 16.2818 35.728C16.4069 35.728 16.4486 35.728 16.4486 35.8128C16.4486 35.8552 16.4069 35.8976 16.3235 35.8976C16.2401 35.8976 16.1149 35.8976 16.0315 35.94C15.8229 35.9824 15.7395 36.0672 15.7395 36.3639C15.7395 36.6182 15.7395 36.8302 15.7395 37.9748V39.3737H15.6143Z" fill="white"/>
<path d="M17.8669 38.6954C17.8669 37.3813 18.7847 35.6857 21.1207 35.6857C23.0813 35.6857 24.291 36.7878 24.291 38.5259C24.291 40.2639 23.0396 41.6628 21.0373 41.6628C18.8264 41.7052 17.8669 40.0519 17.8669 38.6954ZM23.1647 38.8226C23.1647 37.127 22.1635 36.1096 20.9121 36.1096C20.0361 36.1096 19.0349 36.5759 19.0349 38.4835C19.0349 40.0519 19.911 41.2813 21.371 41.2813C21.955 41.2813 23.1647 41.0269 23.1647 38.8226Z" fill="white"/>
<path d="M25.0002 37.3813C25.0002 36.0248 25.0002 35.7704 25.0002 35.4737C25.0002 35.177 24.9167 35.0074 24.6247 34.965C24.5413 34.965 24.4161 34.9226 24.291 34.9226C24.2076 34.9226 24.1241 34.9226 24.1241 34.8378C24.1241 34.7954 24.1659 34.7531 24.3327 34.7531C24.7916 34.7531 25.3756 34.7954 25.5424 34.7954C25.8345 34.7954 26.5019 34.7531 26.7939 34.7531C27.3362 34.7531 27.9619 34.7954 28.4208 35.1346C28.6711 35.3041 29.0048 35.7704 29.0048 36.3639C29.0048 37.0422 28.7128 37.6356 27.8368 38.3563C28.6293 39.3737 29.2551 40.1791 29.7556 40.7302C30.2562 41.2389 30.6317 41.3237 30.7568 41.3237C30.8402 41.3237 30.9237 41.3661 31.0071 41.3661C31.0905 41.3661 31.1322 41.4084 31.1322 41.4508C31.1322 41.5356 31.0905 41.5356 30.9654 41.5356H30.1311C29.6305 41.5356 29.4219 41.4932 29.1716 41.3661C28.7962 41.1541 28.4625 40.7302 27.9619 40.0519C27.6282 39.5432 27.211 38.9498 27.0859 38.8226C27.0442 38.7802 27.0025 38.7802 26.919 38.7802H26.1682C26.1265 38.7802 26.0847 38.7802 26.0847 38.865V38.9922C26.0847 39.84 26.0847 40.5182 26.1265 40.8998C26.1682 41.1541 26.2099 41.3661 26.4602 41.4084C26.5853 41.4084 26.7939 41.4508 26.8773 41.4508C26.9608 41.4508 27.0025 41.4932 27.0025 41.5356C27.0025 41.578 26.9608 41.6204 26.8356 41.6204C26.335 41.6204 25.6676 41.578 25.5424 41.578C25.3756 41.578 24.8333 41.6204 24.4579 41.6204C24.3327 41.6204 24.291 41.578 24.291 41.5356C24.291 41.4932 24.3327 41.4508 24.4162 41.4508C24.5413 41.4508 24.6664 41.4508 24.7499 41.4084C24.9167 41.3661 24.9584 41.1541 25.0002 40.8998C25.0419 40.5182 25.0419 39.7976 25.0419 38.9922V37.3813H25.0002ZM26.043 38.1019C26.043 38.1867 26.043 38.2291 26.1265 38.2715C26.2933 38.3139 26.5853 38.3563 26.7939 38.3563C27.1276 38.3563 27.2528 38.3139 27.4196 38.1867C27.6699 37.9748 27.9619 37.5933 27.9619 36.8302C27.9619 35.5585 27.1276 35.177 26.627 35.177C26.4185 35.177 26.2516 35.177 26.1682 35.2194C26.1265 35.2194 26.0847 35.2617 26.0847 35.3465V38.1019H26.043Z" fill="white"/>
<path d="M31.2156 38.0172C31.2156 36.8726 31.2156 36.6607 31.2156 36.4063C31.2156 36.152 31.1322 36.0672 30.8819 35.9824C30.8402 35.9824 30.6733 35.94 30.5899 35.94C30.5064 35.94 30.4647 35.8976 30.4647 35.8552C30.4647 35.8128 30.5064 35.7704 30.6316 35.7704C31.0487 35.7704 31.5493 35.7704 31.7579 35.7704C32.0082 35.7704 33.7185 35.7704 33.8853 35.7704C34.0105 35.7704 34.1356 35.7281 34.219 35.7281C34.2608 35.7281 34.3025 35.6857 34.3442 35.6857C34.3859 35.6857 34.3859 35.7281 34.3859 35.7704C34.3859 35.8128 34.3442 35.8976 34.3442 36.2791C34.3442 36.3639 34.3025 36.7031 34.3025 36.7878C34.3025 36.8302 34.2608 36.915 34.219 36.915C34.1773 36.915 34.1773 36.8726 34.1773 36.8302C34.1773 36.7878 34.1773 36.6607 34.1356 36.5335C34.0939 36.4063 34.0105 36.2791 33.635 36.2368C33.5099 36.2368 32.5922 36.1944 32.4253 36.1944C32.3836 36.1944 32.3836 36.2368 32.3836 36.2791V38.1867C32.3836 38.2291 32.3836 38.2715 32.4253 38.2715C32.5922 38.2715 33.5933 38.2715 33.8019 38.2715C33.9687 38.2715 34.0939 38.2291 34.1773 38.1443C34.219 38.102 34.2607 38.0596 34.3025 38.0596C34.3442 38.0596 34.3442 38.102 34.3442 38.1443C34.3442 38.1867 34.3442 38.3139 34.3025 38.6954C34.3025 38.865 34.2607 39.1617 34.2607 39.2041C34.2607 39.2465 34.2607 39.3737 34.1773 39.3737C34.1356 39.3737 34.0939 39.3313 34.0939 39.3313C34.0939 39.2465 34.0939 39.1617 34.0522 39.0346C34.0105 38.865 33.927 38.7802 33.635 38.7378C33.5099 38.7378 32.5922 38.6954 32.4253 38.6954C32.3836 38.6954 32.3836 38.7378 32.3836 38.7802V39.3737C32.3836 39.628 32.3836 40.2639 32.3836 40.5182C32.3836 41.0269 32.6339 41.1541 33.4264 41.1541C33.635 41.1541 33.9687 41.1541 34.1773 41.0693C34.3859 40.9845 34.4693 40.815 34.511 40.5182C34.511 40.4335 34.5528 40.3911 34.5945 40.3911C34.6362 40.3911 34.6779 40.4759 34.6779 40.5606C34.6779 40.7302 34.6362 41.2389 34.5527 41.4085C34.511 41.6204 34.4276 41.6204 34.1356 41.6204C33.5516 41.6204 33.0927 41.6204 32.7173 41.578C32.3419 41.578 32.0499 41.578 31.7996 41.578C31.7162 41.578 31.5493 41.578 31.3407 41.578C31.1739 41.578 30.9653 41.578 30.7984 41.578C30.715 41.578 30.6316 41.5356 30.6316 41.4932C30.6316 41.4508 30.6733 41.4085 30.7567 41.4085C30.8819 41.4085 30.9653 41.4085 31.0487 41.3661C31.2156 41.3237 31.2573 41.1965 31.2573 40.9422C31.299 40.603 31.299 40.0096 31.299 39.3313V38.0172H31.2156Z" fill="white"/>
<path d="M35.3871 38.0172C35.3871 36.8726 35.3871 36.6607 35.3871 36.4063C35.3871 36.152 35.3037 36.0672 35.0534 35.9824C35.0117 35.9824 34.8448 35.94 34.7614 35.94C34.6779 35.94 34.6362 35.8976 34.6362 35.8552C34.6362 35.8128 34.6779 35.7704 34.8031 35.7704C35.2202 35.7704 35.7208 35.7704 35.9294 35.7704C36.1797 35.7704 36.7219 35.7704 37.1808 35.7704C38.1402 35.7704 39.4751 35.7704 40.3094 36.6607C40.6848 37.0422 41.0603 37.678 41.0603 38.6107C41.0603 39.5856 40.6431 40.3063 40.226 40.7302C39.8923 41.0693 39.058 41.6204 37.598 41.6204C37.306 41.6204 36.9722 41.578 36.6802 41.578C36.3882 41.5356 36.0962 41.5356 35.8877 41.5356C35.8042 41.5356 35.6374 41.5356 35.4288 41.5356C35.2619 41.5356 35.0534 41.5356 34.8865 41.5356C34.8031 41.5356 34.7197 41.4932 34.7197 41.4509C34.7197 41.4085 34.7614 41.3661 34.8448 41.3661C34.9699 41.3661 35.0534 41.3661 35.1368 41.3237C35.3037 41.2813 35.3454 41.1541 35.3871 40.8998C35.4288 40.5606 35.4288 39.9672 35.4288 39.2889V38.0172H35.3871ZM36.43 38.865C36.43 39.6704 36.43 40.2639 36.43 40.3911C36.43 40.5606 36.4717 40.8574 36.5134 40.9422C36.5968 41.0693 36.9305 41.2389 37.5145 41.2389C38.2237 41.2389 38.7243 41.1117 39.2248 40.7302C39.7254 40.3063 39.8923 39.628 39.8923 38.8226C39.8923 37.8476 39.5168 37.2117 39.1831 36.915C38.474 36.2791 37.598 36.1944 37.014 36.1944C36.8471 36.1944 36.5968 36.1944 36.5551 36.2367C36.4717 36.2791 36.4717 36.2791 36.4717 36.4063C36.4717 36.6607 36.4717 37.2965 36.4717 37.89V38.865H36.43Z" fill="white"/>
<path d="M25.0834 20.8488C25.1252 20.8488 25.1252 20.8488 25.1669 20.8488L25.2086 20.9759H25.6257L25.6674 20.8912C25.6674 20.8488 25.6674 20.8064 25.6674 20.7216C25.6674 20.5944 25.6257 20.3825 25.4172 20.1705C25.2086 19.9162 24.9166 19.8738 24.708 19.8738C24.708 19.8738 24.5829 19.8738 24.5412 19.8738H24.4577L24.416 19.9586C24.416 20.001 24.416 20.0433 24.416 20.0857C24.416 20.2129 24.4577 20.4249 24.6663 20.6368C24.8332 20.8064 25 20.8488 25.0834 20.8488Z" fill="white"/>
<path d="M22.8309 22.4172L22.9977 22.5868C22.9977 22.5868 22.9977 22.5868 23.0394 22.6292C22.9977 22.7988 22.9977 22.9683 22.9977 23.1803V23.2227C22.9977 23.9857 23.248 24.7911 23.4983 25.5966C23.7069 26.2748 23.9154 26.9107 23.9154 27.4194C23.9154 27.6737 23.8737 27.8857 23.7486 28.0553L23.4566 28.4368L23.8737 28.2672C23.8737 28.2672 23.9572 28.2248 24.0406 28.2248C24.0823 28.2248 24.0823 28.1824 24.124 28.1824H24.1657C24.1657 28.1824 24.1657 28.1824 24.2075 28.1824H24.2492C24.2492 28.1824 24.2492 28.1824 24.2909 28.14C24.4994 27.8009 24.5829 27.4618 24.5829 27.1226C24.5829 26.5292 24.3326 25.8085 23.8737 24.8335C23.54 24.1553 23.4983 23.5618 23.4983 23.1803C23.4983 23.0955 23.4983 23.0531 23.4983 23.0107C23.6234 23.0955 23.7486 23.1803 23.9154 23.2651C24.3743 23.477 24.3743 24.2401 24.3743 24.4096C24.3743 24.4944 24.3743 24.5368 24.3743 24.5368V24.664L24.8749 24.7911L24.9166 24.664C24.9583 24.5792 24.9583 24.4096 24.9583 24.2401C24.9583 24.0705 24.9583 23.9433 24.9166 23.8161C24.8332 23.3922 24.6246 23.0107 24.5412 22.8835L24.4994 22.8412H24.416C24.416 22.8412 24.1657 22.8412 23.9154 22.6716C23.54 22.4172 23.248 21.9933 23.0812 21.3575C23.0394 21.1879 23.0394 21.0183 23.0394 20.8912C23.0394 20.3401 23.2897 19.8314 23.4566 19.5347C23.6234 19.2379 23.832 19.0684 23.8737 18.9836L24.0406 18.8564L23.54 18.6021L23.4566 18.6444C23.2897 18.814 22.372 19.7042 22.3303 21.0183C22.3303 21.0607 22.3303 21.1031 22.3303 21.1455C22.2886 21.9509 22.8309 22.3749 22.8309 22.4172Z" fill="white"/>
<path d="M35.4287 8.93689C35.2619 8.93689 35.1367 8.97928 35.0116 9.06406L34.9699 9.10645C34.3442 9.61515 33.5516 10.2086 32.6756 10.9293C32.759 10.7173 32.8424 10.5054 32.9259 10.251L33.2179 9.48797V9.44558C33.2596 9.3608 33.2596 9.27602 33.2596 9.14884C33.2596 8.72493 32.9259 8.3858 32.5087 8.3858C32.3836 8.3858 32.2167 8.4282 32.1333 8.51298L32.0916 8.55537C31.6327 8.85211 31.1738 9.14884 30.715 9.48797L31.1738 7.74994V7.70755C31.1738 7.66516 31.1738 7.62277 31.1738 7.53798C31.1738 7.11407 30.8401 6.77495 30.423 6.77495C30.2561 6.77495 30.131 6.81734 30.0058 6.90212H29.9641C29.5053 7.19886 29.0047 7.53798 28.5875 7.87711L28.8378 6.18147V6.13908C28.8378 6.09669 28.8378 6.09669 28.8378 6.0543C28.8378 5.63039 28.5041 5.29126 28.087 5.29126C27.9618 5.29126 27.8367 5.33365 27.7115 5.37604L27.6698 5.41843C26.4601 6.18147 24.7081 7.62277 23.4149 10.0814C22.1218 12.5401 21.5795 15.0412 21.3292 16.7792C21.1206 16.864 20.9538 16.9488 20.7452 17.0336C20.4115 15.4227 19.6189 12.413 18.0754 9.86949C16.6571 7.53798 14.8634 6.18147 13.5703 5.41843C13.4451 5.37604 13.3617 5.33365 13.2365 5.33365C12.8194 5.33365 12.4857 5.67278 12.4857 6.09669C12.4857 6.13908 12.4857 6.18147 12.4857 6.22386L12.7777 7.83472C12.3605 7.53798 11.9434 7.24125 11.5262 6.9869H11.4845C11.3594 6.94451 11.2342 6.90212 11.1091 6.90212C10.6919 6.90212 10.3582 7.24125 10.3582 7.66516C10.3582 7.70755 10.3582 7.79233 10.3582 7.83472L10.7754 9.61514C10.3582 9.31841 9.94109 9.06406 9.52394 8.80972C9.3988 8.76732 9.27366 8.72493 9.14851 8.72493C8.73137 8.72493 8.39764 9.06406 8.39764 9.48797C8.39764 9.57275 8.39764 9.65754 8.43936 9.69993C8.60622 10.251 8.8148 11.014 8.93994 11.3956C6.72906 9.48797 6.47878 9.27602 6.47878 9.27602C6.35363 9.14884 6.18677 9.10645 6.01991 9.10645C5.60277 9.10645 5.26904 9.44558 5.26904 9.86949C5.26904 9.91188 5.26904 9.99666 5.26904 10.0391L5.31076 10.251C5.35247 10.463 5.4359 10.7173 5.51933 11.1412C6.68734 16.1858 8.98165 25.8933 9.02336 26.0205C9.06508 26.19 9.19023 26.3596 9.31537 26.4868L20.328 33.7356C20.4532 33.8204 20.5783 33.8628 20.7035 33.8628C20.8703 33.8628 20.9955 33.8204 21.1206 33.7356L32.2584 26.5292C32.4253 26.4444 32.5504 26.2748 32.5921 26.0629L32.9259 24.4944C33.3013 22.7988 33.8853 20.0857 34.4693 17.3727L34.511 17.2455C35.095 14.5325 35.7208 11.6923 36.0962 9.99666C36.0962 9.91188 36.1379 9.86949 36.1379 9.78471C36.1796 9.27602 35.8459 8.93689 35.4287 8.93689ZM21.0789 24.3672V24.3248C21.1206 23.5618 21.1206 23.0531 21.1623 22.8411C21.204 22.4172 21.3292 22.0781 21.4543 21.739L21.4961 21.6118L21.0372 21.2727L20.9538 21.4422C20.8703 21.6542 20.7452 21.8662 20.6618 22.1205C20.5366 22.4172 20.4949 23.0531 20.4115 24.2824V24.3672C20.4115 24.6216 20.4115 25.639 20.4115 26.9531C20.4115 28.9031 20.4115 31.5313 20.4115 32.8454L9.89937 25.5966L6.5622 10.5901L17.7417 19.577C17.2829 20.2553 16.9492 20.9759 16.6572 21.7814L16.6154 21.8662L17.0743 22.2053L17.1577 22.0357C17.408 21.3575 17.7834 20.6368 18.2423 19.9586L18.9515 20.552L19.0349 20.4249C19.0766 20.3401 19.1183 20.2977 19.16 20.2129L19.2852 20.0433L19.16 19.9162C19.1183 19.8738 18.9097 19.7042 18.6595 19.4923L18.6177 19.4499C18.7012 19.3227 18.7846 19.2379 18.9097 19.1107C19.16 19.4499 19.3269 19.7466 19.3686 19.789C19.3686 19.789 19.3686 19.8314 19.4103 19.8314L19.452 19.789L19.4103 19.8314C19.4103 19.8314 19.452 19.8738 19.4937 19.8738H19.5355L19.6189 19.7466C19.6606 19.6618 19.744 19.5346 19.7858 19.5346L19.744 19.6194L19.7023 19.5346C19.6606 19.4075 19.3269 18.9412 19.2435 18.814C19.3269 18.7292 19.4103 18.6444 19.4937 18.602C19.6606 18.9412 19.744 19.1955 19.7858 19.2803C19.7858 19.3227 19.7858 19.3227 19.8275 19.3227L19.9109 19.5346L20.3698 19.0683L20.328 18.9836C20.328 18.9836 20.328 18.9836 20.328 18.9412C20.2863 18.8564 20.2029 18.5597 20.036 18.1781C20.1195 18.0934 20.2029 18.051 20.2863 18.0086C20.4115 18.5173 20.4532 18.7716 20.4532 18.7716L20.4949 19.026L21.0372 18.5597V18.4749C21.0372 18.4749 20.9955 18.1357 20.912 17.6271C21.0372 17.5423 21.1623 17.4999 21.2875 17.4575C21.2458 17.9662 21.204 18.2629 21.204 18.2629V18.5173L21.4126 18.3901C21.4543 18.3477 21.496 18.3477 21.5378 18.3053C21.6212 18.2629 21.6629 18.2205 21.7463 18.2205L21.8298 18.1781V18.0934C21.8298 18.0934 21.8715 17.7542 21.9549 17.2031C22.08 17.1607 22.2469 17.1184 22.3303 17.076C22.1635 17.5423 22.1218 17.7966 22.1218 17.7966L22.0383 18.0086L22.7058 17.839L22.7475 17.7542C22.8726 17.4151 22.9978 17.1184 23.0812 16.9064C23.2064 16.864 23.3315 16.864 23.4149 16.864C23.1646 17.2455 23.0812 17.4999 23.0812 17.4999L22.9144 17.839L23.1646 17.7542C23.2064 17.7542 23.2481 17.7542 23.2898 17.7542C23.3732 17.7542 23.4149 17.7542 23.4984 17.7542H23.5818L23.6235 17.7118C23.6235 17.6694 23.8738 17.3727 24.2492 16.864C24.2909 16.864 24.2909 16.864 24.3326 16.864C24.5412 16.864 24.7498 16.864 24.9584 16.864L24.8332 17.1607C24.6664 17.2879 24.5412 17.3727 24.4578 17.4575C24.4161 17.4999 24.3744 17.4999 24.3326 17.5423L24.0406 17.7966H24.2492C24.2909 17.839 24.2909 17.839 24.3326 17.839H24.4161C24.4995 17.839 24.6246 17.8814 24.7081 17.8814H24.7498L25.9595 17.0336C26.0012 17.0336 26.0847 16.9912 26.1264 16.9912C26.0012 17.1184 25.8344 17.2455 25.7509 17.4151C25.5424 17.7542 25.5424 18.0086 25.5424 18.0086C25.5424 18.051 25.5424 18.0934 25.5841 18.0934H25.6258C25.7509 18.1357 25.8344 18.1781 25.8761 18.2205L26.0012 18.2629L26.0429 18.2205C26.0429 18.3053 26.0429 18.3477 26.0429 18.4325C26.0429 18.9836 26.1264 19.577 26.2515 20.2129C26.3767 20.8064 26.4601 21.3999 26.4601 21.9509C26.4601 22.7564 26.335 23.2651 26.2515 23.5194L25.9595 23.477C25.9595 23.477 25.9595 23.477 25.9178 23.477C25.8761 23.477 25.5424 23.477 25.2504 23.9433C25.0001 24.3248 24.9584 24.6216 24.9584 24.7064V24.7911L25.0418 24.8335C25.1252 24.8759 25.2504 24.9183 25.3755 24.9183C25.6258 24.9183 25.9595 24.8335 26.4184 24.3672C26.8772 23.9009 27.0858 23.0955 27.0858 21.9085C27.0858 21.4422 27.0441 20.9759 26.9607 20.5096C26.7938 19.4075 26.6687 18.602 26.6687 17.9662C26.6687 17.7966 26.6687 17.6271 26.7104 17.4999C26.7521 17.2031 26.8772 16.9488 26.9607 16.8216C27.0441 16.6944 27.0858 16.6521 27.0858 16.6097L27.2527 16.4401L27.0024 16.3977C27.0024 16.3977 26.919 16.3977 26.7938 16.3553L34.8447 10.6749L31.8413 25.639L21.0372 32.9302C21.0372 31.6161 21.0372 28.3096 21.0372 26.19V24.452C21.0789 24.4096 21.0789 24.4096 21.0789 24.3672ZM19.7858 17.5423C19.1183 15.9738 17.7834 13.0488 15.9897 10.8445C15.2806 9.99666 14.488 9.19124 13.612 8.47059L13.2365 6.30864C14.2794 6.94451 15.7811 8.08907 17.0326 9.95427C18.284 11.8619 19.16 14.151 19.6189 15.7195C19.7858 16.2281 19.9109 16.7792 20.0777 17.2879C20.036 17.3727 19.9109 17.4575 19.7858 17.5423ZM19.2435 17.9238C19.1183 18.0086 19.0349 18.0934 18.9097 18.2205C17.9086 16.6521 15.9063 13.7695 13.904 11.989C13.1948 11.3532 12.4857 10.8021 11.7765 10.251L11.1925 7.96189C12.1937 8.55537 13.6537 9.53036 15.0303 11.0564C16.1566 12.3282 17.3246 14.1086 18.4509 16.3129C18.7429 16.864 18.9932 17.4151 19.2435 17.9238ZM17.3246 17.1184C17.7 17.627 18.1172 18.1781 18.4509 18.6868C18.3257 18.814 18.2006 18.9836 18.0754 19.1531C17.7417 18.8564 17.2829 18.5173 16.824 18.0934C14.9886 16.5249 12.3188 14.1934 10.1497 12.3706L9.35709 9.78471C10.6502 10.5477 11.9017 11.438 13.0697 12.413C14.6548 13.7271 16.24 15.6771 17.3246 17.1184ZM26.1681 23.6466C26.0847 23.8585 25.9595 23.9857 25.8761 24.1129C25.8761 24.0705 25.8761 24.0281 25.8761 23.9857C25.8761 23.9009 25.9178 23.8161 25.9595 23.7738C25.9595 23.7738 25.9595 23.7314 26.0012 23.7314L26.1681 23.6466ZM31.3824 11.9467C31.0487 12.201 30.6733 12.4977 30.3396 12.7945C28.963 13.8966 27.4612 15.0412 26.2098 16.0586C26.1264 16.1434 26.0012 16.2281 25.9178 16.2705C25.5007 16.2281 25.1252 16.1858 24.7498 16.1858C24.7915 16.1434 24.8332 16.0586 24.9166 16.0162C25.6675 15.126 26.8772 13.7271 28.4207 12.413C29.5887 11.438 30.7984 10.5477 32.0916 9.74232L31.3824 11.9467ZM29.6304 10.251C28.8795 10.8021 28.1704 11.3956 27.5447 11.989C25.8344 13.5575 24.5829 15.1684 23.8321 16.2281C23.6652 16.2281 23.4566 16.2705 23.2898 16.2705C23.3732 16.0586 23.4566 15.889 23.5401 15.6771C24.0824 14.5325 25.0418 12.7945 26.4184 11.1836C27.503 9.91188 28.7544 8.80972 30.1727 7.9195L29.6304 10.251ZM27.795 8.55537C26.9607 9.31841 26.2098 10.0814 25.5841 10.9293C24.0824 12.9216 23.1229 14.9988 22.5806 16.3553C22.3721 16.3977 22.2052 16.4401 22.0801 16.4825C22.1218 16.1858 22.2052 15.889 22.2886 15.5075C22.6223 14.1086 23.2898 12.0738 24.4578 10.1238C25.6258 8.17385 27.0441 6.9869 28.087 6.26625L27.795 8.55537Z" fill="white"/>
<path d="M47.3174 0.246704H46.9419V48.5725H47.3174V0.246704Z" fill="white"/>
</svg>
