<?xml version="1.0" encoding="utf-8"?>
<!-- Generator: Adobe Illustrator 27.5.0, SVG Export Plug-In . SVG Version: 6.00 Build 0)  -->
<svg version="1.1" id="Layer_1" xmlns="http://www.w3.org/2000/svg" xmlns:xlink="http://www.w3.org/1999/xlink" x="0px" y="0px"
	 viewBox="0 0 343.6 74.3" style="enable-background:new 0 0 343.6 74.3;" xml:space="preserve">
<style type="text/css">
	.st0{fill:#FFFFFF;}
</style>
<g id="Group_7" transform="translate(29 1)">
	<g>
		<g>
			<g id="Group_6" transform="translate(-29 -1)">
				<path id="Path_1" class="st0" d="M87.9,10.8h4.5c1.8,0,2.9,1,2.9,2.5c0.1,1.1-0.6,2.1-1.7,2.4v0c1.1,0.2,1.3,1,1.4,2
					c-0.1,0.9,0.1,1.8,0.6,2.6h-1.4c-0.4-0.4-0.2-1.4-0.3-2.3c-0.1-0.9-0.4-1.7-1.6-1.7h-3.1v4h-1.3L87.9,10.8z M91.8,15.2
					c1.2,0,2.2-0.3,2.2-1.7c0.1-0.8-0.6-1.6-1.4-1.6c-0.1,0-0.2,0-0.3,0h-3.1v3.3L91.8,15.2z"/>
				<path id="Path_2" class="st0" d="M102.2,18.1c-0.2,1.4-1.5,2.4-2.9,2.3c-2.2,0-3.2-1.5-3.3-3.6c-0.2-1.8,1.2-3.4,3-3.6
					c0.1,0,0.1,0,0.2,0c2.4,0,3.2,2.3,3.1,3.9h-5.1c-0.1,1.1,0.7,2.1,1.8,2.2c0.1,0,0.2,0,0.4,0c0.8,0.1,1.6-0.5,1.8-1.3L102.2,18.1
					z M101.1,16.2c0-1.1-0.9-1.9-2-1.9c-1.1,0-1.9,0.9-2,1.9H101.1z"/>
				<path id="Path_3" class="st0" d="M109.1,20.3h-1.1v-0.9h0c-0.5,0.8-1.3,1.2-2.2,1.1c-1.8,0-3.2-1.5-3.2-3.2c0-0.1,0-0.2,0-0.4
					c-0.2-1.7,1-3.3,2.7-3.6c0.1,0,0.3,0,0.4,0c0.9,0,1.7,0.4,2.2,1.1h0v-3.5h1.1L109.1,20.3z M105.9,19.5c1.5,0,2.1-1.3,2.1-2.6
					c0-1.4-0.6-2.6-2.2-2.6c-1.6,0-2.1,1.3-2.1,2.7C103.8,18.2,104.4,19.5,105.9,19.5"/>
				<path id="Path_4" class="st0" d="M113.6,10.8h3.2c2.2-0.3,4.2,1.2,4.6,3.4c0.1,0.4,0.1,0.7,0,1.1c0,3.2-1.4,5-4.6,5h-3.2
					L113.6,10.8L113.6,10.8z M114.9,19.2h2.1c0.9,0,3.2-0.2,3.2-3.7c0-2.3-0.8-3.6-3.2-3.6h-2.1V19.2z"/>
				<path id="Path_5" class="st0" d="M123.4,12.2h-1.1v-1.4h1.1V12.2z M122.3,13.4h1.1v6.9h-1.1V13.4z"/>
				<path id="Path_6" class="st0" d="M125.4,18.1c0,1,0.9,1.3,1.8,1.3c0.7,0,1.7-0.2,1.7-1s-1.1-1-2.2-1.3s-2.2-0.6-2.2-1.9
					c0-1.4,1.4-2,2.6-2c1.5,0,2.7,0.5,2.8,2.2h-1.1c-0.1-0.9-0.8-1.2-1.6-1.2c-0.7,0-1.5,0.2-1.5,0.9c0,0.8,1.2,0.9,2.2,1.2
					c1.1,0.2,2.2,0.6,2.2,2c0,1.6-1.5,2.2-2.9,2.2c-1.5,0-2.8-0.6-2.9-2.3L125.4,18.1L125.4,18.1z"/>
				<path id="Path_7" class="st0" d="M132.4,13.4h1.4v1h-1.4v4.3c0,0.5,0.1,0.6,0.9,0.6h0.5v1h-0.9c-1.2,0-1.6-0.2-1.6-1.5v-4.4
					h-1.2v-1h1.2v-2.1h1.1L132.4,13.4z"/>
				<path id="Path_8" class="st0" d="M134.4,13.4h1.1v1.4h0c0.4-1,1.4-1.7,2.5-1.6v1.2c-1.8,0-2.5,1-2.5,2.8v3h-1.1V13.4z"/>
				<path id="Path_9" class="st0" d="M139.5,12.2h-1.1v-1.4h1.1V12.2z M138.4,13.4h1.1v6.9h-1.1V13.4z"/>
				<path id="Path_10" class="st0" d="M142.3,13.4h1.4v1h-1.4v4.3c0,0.5,0.1,0.6,0.9,0.6h0.5v1h-0.9c-1.2,0-1.6-0.2-1.6-1.5v-4.4
					H140v-1h1.2v-2.1h1.1L142.3,13.4L142.3,13.4z"/>
				<path id="Path_11" class="st0" d="M150.5,20.3c-0.2,0.1-0.5,0.2-0.8,0.2c-0.6,0-1-0.3-1-1.1c-0.6,0.7-1.5,1.1-2.4,1.1
					c-1.2,0-2.3-0.6-2.3-1.9c0-1.5,1.2-1.9,2.3-2.1c1.2-0.2,2.3-0.2,2.3-1c0-1-0.8-1.1-1.5-1.1c-1,0-1.7,0.3-1.7,1.3h-1.1
					c0.1-1.7,1.4-2.3,2.9-2.3c1.2,0,2.6,0.3,2.6,1.9v3.5c0,0.5,0,0.8,0.4,0.8c0.1,0,0.2,0,0.4-0.1L150.5,20.3z M148.6,16.8
					c-0.6,0.3-1.3,0.4-2.1,0.5c-0.7,0.1-1.4,0.4-1.4,1.2c0,0.7,0.6,1,1.3,1c1.5,0,2.1-0.9,2.1-1.5V16.8z"/>
				<rect id="Rectangle_12" x="151.1" y="10.8" class="st0" width="1.1" height="9.5"/>
				<path id="Path_12" class="st0" d="M93.9,34.5h-1.1v-0.9h0c-0.5,0.8-1.3,1.2-2.2,1.1c-1.8,0-3.2-1.5-3.2-3.2c0-0.1,0-0.2,0-0.4
					c-0.2-1.7,1-3.3,2.7-3.5c0.1,0,0.3,0,0.4,0c0.9,0,1.7,0.4,2.2,1.1h0v-3.5h1.1L93.9,34.5z M90.7,33.7c1.5,0,2.1-1.3,2.1-2.6
					c0-1.4-0.6-2.6-2.2-2.6s-2.1,1.3-2.1,2.7C88.6,32.5,89.2,33.7,90.7,33.7"/>
				<path id="Path_13" class="st0" d="M101,32.4c-0.2,1.4-1.5,2.4-2.9,2.3c-2.2,0-3.2-1.5-3.3-3.6c-0.2-1.8,1.2-3.4,3-3.6
					c0.1,0,0.1,0,0.2,0c2.4,0,3.2,2.3,3.1,3.9h-5.1c-0.1,1.1,0.7,2.1,1.8,2.2c0.1,0,0.2,0,0.4,0c0.8,0.1,1.6-0.5,1.8-1.3H101z
					 M99.9,30.5c0-1.1-0.9-2-2-2c-1.1,0-2,0.9-2,2H99.9z"/>
				<path id="Path_14" class="st0" d="M105.1,25.1h3.4c0.8-0.1,1.7,0,2.5,0.4c0.7,0.4,1.1,1.2,1.1,2c0,0.9-0.5,1.8-1.4,2.1v0
					c1.1,0.2,1.9,1.2,1.8,2.3c0,1.5-1.2,2.7-2.7,2.7c-0.1,0-0.2,0-0.2,0H105L105.1,25.1L105.1,25.1z M106.3,29.1h2.5
					c1.4,0,2-0.5,2-1.5c0-1.3-0.9-1.5-2-1.5h-2.5V29.1z M106.3,33.5h3.2c0.9,0.1,1.7-0.6,1.8-1.5c0-0.1,0-0.2,0-0.2
					c0-1.2-1-1.6-2.1-1.6h-2.9L106.3,33.5z"/>
				<path id="Path_15" class="st0" d="M114.6,26.5h-1.1v-1.4h1.1V26.5z M113.5,27.7h1.1v6.9h-1.1V27.7z"/>
				<path id="Path_16" class="st0" d="M115.9,25.1h1.1v3.5h0c0.5-0.8,1.3-1.2,2.2-1.1c1.8,0,3.2,1.5,3.2,3.2c0,0.1,0,0.2,0,0.4
					c0.2,1.7-1,3.3-2.7,3.5c-0.1,0-0.3,0-0.4,0c-0.9,0-1.7-0.4-2.2-1.1h0v0.9h-1.1L115.9,25.1z M119.1,28.5c-1.5,0-2.1,1.3-2.1,2.6
					c0,1.4,0.6,2.6,2.2,2.6c1.6,0,2.1-1.3,2.1-2.7C121.2,29.8,120.5,28.5,119.1,28.5"/>
				<rect id="Rectangle_13" x="123.3" y="25.1" class="st0" width="1.1" height="9.5"/>
				<path id="Path_17" class="st0" d="M126.8,26.5h-1.1v-1.4h1.1V26.5z M125.7,27.7h1.1v6.9h-1.1V27.7z"/>
				<path id="Path_18" class="st0" d="M131,27.5c2-0.1,3.7,1.3,3.9,3.3s-1.3,3.7-3.3,3.9c-2,0.2-3.7-1.3-3.9-3.3c0-0.1,0-0.2,0-0.3
					c-0.2-1.8,1.1-3.4,2.9-3.6C130.7,27.5,130.9,27.5,131,27.5 M131,33.7c1.2,0,2.1-0.9,2.1-2.6s-1-2.6-2.1-2.6s-2.1,0.9-2.1,2.6
					C128.9,32.8,129.8,33.7,131,33.7"/>
				<path id="Path_19" class="st0" d="M136.7,27.7h1.4v1h-1.4v4.3c0,0.5,0.1,0.6,0.9,0.6h0.5v1h-0.9c-1.2,0-1.6-0.2-1.6-1.5v-4.4
					h-1.2v-1h1.2v-2h1.1L136.7,27.7z"/>
				<path id="Path_20" class="st0" d="M144.6,32.4c-0.2,1.4-1.5,2.4-2.9,2.3c-2.2,0-3.2-1.5-3.3-3.6c-0.1-1.8,1.2-3.4,3-3.6
					c0.1,0,0.1,0,0.2,0c2.4,0,3.2,2.3,3.1,3.9h-5.1c-0.1,1.1,0.7,2.1,1.8,2.2c0.1,0,0.2,0,0.4,0c0.9,0.1,1.6-0.5,1.8-1.3H144.6z
					 M143.6,30.5c0-1.1-0.9-2-2-2s-2,0.9-2,2H143.6z"/>
				<path id="Path_21" class="st0" d="M150.1,29.9c-0.1-0.8-0.9-1.4-1.7-1.4c-1.6,0-2.1,1.3-2.1,2.7c0,1.3,0.6,2.5,2,2.5
					c1,0.1,1.8-0.7,1.9-1.7v0h1.2c-0.1,1.6-1.5,2.8-3,2.7c-1.7,0.1-3.2-1.3-3.2-3c0-0.2,0-0.3,0-0.5c-0.2-1.8,1-3.4,2.8-3.6
					c0.2,0,0.3,0,0.5,0c1.4-0.2,2.8,0.8,2.9,2.3c0,0,0,0.1,0,0.1H150.1z"/>
				<path id="Path_22" class="st0" d="M158.1,34.5c-0.2,0.1-0.5,0.2-0.8,0.2c-0.6,0-1-0.3-1-1.1c-0.6,0.7-1.5,1.1-2.4,1.1
					c-1.2,0-2.3-0.6-2.3-1.9c0-1.5,1.2-1.9,2.3-2.1c1.2-0.2,2.3-0.2,2.3-1c0-1-0.8-1.1-1.5-1.1c-1,0-1.7,0.3-1.7,1.3h-1.1
					c0.1-1.7,1.4-2.3,2.9-2.3c1.2,0,2.6,0.3,2.6,1.9v3.5c0,0.5,0,0.8,0.4,0.8c0.1,0,0.2,0,0.4-0.1L158.1,34.5z M156.2,31
					c-0.6,0.3-1.3,0.4-2.1,0.5c-0.7,0.1-1.4,0.4-1.4,1.2c0,0.7,0.6,1,1.3,1c1.5,0,2.1-0.9,2.1-1.5V31z"/>
				<path id="Path_23" class="st0" d="M159.3,32.4c0,1,0.9,1.3,1.9,1.3c0.7,0,1.7-0.2,1.7-1s-1.1-1-2.2-1.3s-2.2-0.6-2.2-1.9
					c0-1.4,1.4-2,2.6-2c1.5,0,2.7,0.5,2.8,2.1h-1.1c-0.1-0.9-0.9-1.2-1.6-1.2c-0.7,0-1.5,0.2-1.5,0.9c0,0.8,1.2,0.9,2.2,1.2
					c1.1,0.2,2.2,0.6,2.2,2c0,1.6-1.5,2.2-2.9,2.2c-1.5,0-2.8-0.6-2.9-2.3L159.3,32.4L159.3,32.4z"/>
				<path id="Path_24" class="st0" d="M87.9,39.3h4.2c1.6,0,2.8,1.2,2.9,2.7s-1.2,2.8-2.7,2.9c-0.1,0-0.1,0-0.2,0h-2.9v3.9h-1.3
					V39.3z M89.2,43.8h2.5c1.4,0,2.1-0.6,2.1-1.7s-0.7-1.7-2.1-1.7h-2.5L89.2,43.8z"/>
				<path id="Path_25" class="st0" d="M101.5,48.8h-1.1v-1.1h0c-0.4,0.8-1.3,1.3-2.2,1.2c-1.8,0-2.4-1-2.4-2.5v-4.5H97v4.7
					c-0.1,0.7,0.5,1.3,1.2,1.4c0.1,0,0.1,0,0.2,0c1.1,0.1,2-0.8,2-1.8c0-0.1,0-0.2,0-0.3v-3.9h1.1L101.5,48.8L101.5,48.8z M99,39.1
					h1.4L98.7,41h-0.8L99,39.1z"/>
				<path id="Path_26" class="st0" d="M102.7,39.3h1.1v3.5h0c0.5-0.8,1.3-1.2,2.2-1.1c1.8,0,3.2,1.5,3.2,3.2c0,0.1,0,0.2,0,0.4
					c0.2,1.7-1,3.3-2.7,3.5c-0.1,0-0.3,0-0.4,0c-0.9,0-1.7-0.4-2.2-1.1h0v0.9h-1.1L102.7,39.3z M105.9,42.8c-1.5,0-2.1,1.3-2.1,2.6
					c0,1.4,0.6,2.6,2.2,2.6c1.6,0,2.1-1.3,2.1-2.7C108,44,107.4,42.8,105.9,42.8"/>
				<rect id="Rectangle_14" x="110.1" y="39.3" class="st0" width="1.1" height="9.5"/>
				<path id="Path_27" class="st0" d="M113.7,40.7h-1.1v-1.4h1.1V40.7z M112.5,41.9h1.1v6.9h-1.1V41.9z"/>
				<path id="Path_28" class="st0" d="M119.5,44.1c-0.1-0.8-0.9-1.4-1.7-1.4c-1.6,0-2.1,1.3-2.1,2.7c0,1.3,0.6,2.5,2,2.5
					c1,0.1,1.8-0.7,1.9-1.7v0h1.2c-0.1,1.6-1.5,2.8-3,2.7c-1.7,0.1-3.2-1.3-3.2-3c0-0.2,0-0.3,0-0.5c-0.2-1.8,1-3.4,2.8-3.7
					c0.2,0,0.3,0,0.5,0c1.4-0.2,2.8,0.8,2.9,2.3c0,0,0,0.1,0,0.1L119.5,44.1z"/>
				<path id="Path_29" class="st0" d="M127.6,48.8c-0.2,0.1-0.5,0.2-0.8,0.2c-0.6,0-1-0.3-1-1.1c-0.6,0.7-1.5,1.1-2.4,1.1
					c-1.2,0-2.3-0.6-2.3-1.9c0-1.5,1.2-1.9,2.3-2.1c1.2-0.2,2.3-0.2,2.3-1c0-1-0.8-1.1-1.5-1.1c-1,0-1.7,0.3-1.7,1.3h-1.1
					c0.1-1.7,1.4-2.3,2.9-2.3c1.2,0,2.6,0.3,2.6,1.9v3.5c0,0.5,0,0.8,0.4,0.8c0.1,0,0.2,0,0.3-0.1L127.6,48.8z M125.7,45.2
					c-0.7,0.3-1.3,0.4-2.1,0.5c-0.7,0.1-1.4,0.4-1.4,1.2c0,0.7,0.6,1,1.3,1c1.5,0,2.1-0.9,2.1-1.5V45.2z"/>
				<path id="Path_30" class="st0" d="M128.8,46.6c0,1,0.9,1.3,1.9,1.3c0.7,0,1.7-0.2,1.7-1s-1.1-1-2.2-1.3s-2.2-0.6-2.2-1.9
					c0-1.4,1.4-2,2.6-2c1.5,0,2.7,0.5,2.8,2.2H132c-0.1-0.9-0.9-1.2-1.6-1.2c-0.7,0-1.5,0.2-1.5,0.9c0,0.8,1.2,0.9,2.2,1.2
					c1.1,0.2,2.2,0.6,2.2,2c0,1.6-1.5,2.2-2.9,2.2c-1.5,0-2.8-0.6-2.9-2.3L128.8,46.6L128.8,46.6z"/>
				<path id="Path_31" class="st0" d="M143.5,48.8h-1.1v-0.9h0c-0.5,0.8-1.3,1.2-2.2,1.1c-1.8,0-3.2-1.5-3.2-3.2c0-0.1,0-0.2,0-0.4
					c-0.2-1.7,1-3.3,2.7-3.5c0.1,0,0.3,0,0.4,0c0.9,0,1.7,0.4,2.2,1.1h0v-3.5h1.1L143.5,48.8z M140.3,47.9c1.5,0,2.1-1.3,2.1-2.6
					c0-1.4-0.6-2.6-2.2-2.6c-1.6,0-2.1,1.3-2.1,2.7C138.2,46.7,138.8,47.9,140.3,47.9"/>
				<path id="Path_32" class="st0" d="M150.6,46.6c-0.2,1.4-1.5,2.4-2.9,2.3c-2.2,0-3.2-1.5-3.3-3.6c-0.1-1.8,1.2-3.4,3-3.6
					c0.1,0,0.1,0,0.2,0c2.4,0,3.2,2.3,3.1,3.9h-5.1c-0.1,1.1,0.7,2.1,1.8,2.2c0.1,0,0.2,0,0.4,0c0.9,0.1,1.6-0.5,1.8-1.3H150.6z
					 M149.5,44.7c0-1.1-0.9-2-2-2s-2,0.9-2,2H149.5z"/>
				<path id="Path_33" class="st0" d="M87.9,53.5h3.4c0.8-0.1,1.7,0,2.5,0.3c0.7,0.4,1.1,1.2,1.1,2c0,0.9-0.5,1.8-1.4,2.1v0
					c1.1,0.2,1.9,1.2,1.8,2.3c0,1.5-1.2,2.7-2.7,2.7c-0.1,0-0.2,0-0.2,0h-4.6L87.9,53.5z M89.2,57.6h2.5c1.4,0,2-0.5,2-1.5
					c0-1.3-0.9-1.5-2-1.5h-2.5L89.2,57.6z M89.2,62h3.2c0.9,0.1,1.7-0.6,1.8-1.5c0-0.1,0-0.2,0-0.2c0-1.2-1-1.6-2.1-1.6h-2.9
					L89.2,62z"/>
				<path id="Path_34" class="st0" d="M99.3,56c2-0.2,3.7,1.3,3.9,3.3s-1.3,3.7-3.3,3.9s-3.7-1.3-3.9-3.3c0-0.1,0-0.2,0-0.3
					c-0.2-1.8,1.1-3.4,2.9-3.6C99,56,99.2,56,99.3,56 M99.3,62.2c1.2,0,2.1-0.9,2.1-2.6s-1-2.6-2.1-2.6s-2.1,0.9-2.1,2.6
					S98.1,62.2,99.3,62.2"/>
				<path id="Path_35" class="st0" d="M109.3,62.4c0,2.2-1,3.4-3.2,3.4c-1.3,0-2.8-0.5-2.8-2h1.1c0.1,0.8,1,1.1,1.8,1.1
					c1.5,0,2.1-1.1,2.1-2.6v-0.5h0c-0.4,0.8-1.2,1.3-2.1,1.2c-1.7,0-3.1-1.4-3.1-3.1c0-0.1,0-0.2,0-0.4c-0.2-1.8,1.1-3.4,2.8-3.6
					c0.1,0,0.2,0,0.3,0c0.8,0,1.6,0.4,2.1,1.1h0v-1h1.1L109.3,62.4z M108.2,59.4c0-1.2-0.5-2.5-2-2.5c-1.4,0-2,1.2-2,2.5
					c0,1.2,0.4,2.6,1.9,2.6S108.2,60.7,108.2,59.4"/>
				<path id="Path_36" class="st0" d="M113.5,56c2-0.2,3.7,1.3,3.9,3.3S116,63,114,63.2s-3.7-1.3-3.9-3.3c0-0.1,0-0.2,0-0.3
					c-0.2-1.8,1.1-3.4,2.9-3.6C113.2,56,113.3,56,113.5,56 M113.5,62.2c1.2,0,2.1-0.9,2.1-2.6s-1-2.6-2.1-2.6s-2.1,0.9-2.1,2.6
					S112.3,62.2,113.5,62.2"/>
				<path id="Path_37" class="st0" d="M119.2,56.1h1.4v1h-1.4v4.3c0,0.5,0.2,0.6,0.8,0.6h0.5v1h-0.9c-1.2,0-1.6-0.2-1.6-1.5v-4.4
					h-1.2v-1h1.2v-2.1h1.1L119.2,56.1z"/>
				<path id="Path_38" class="st0" d="M127.3,63c-0.2,0.1-0.5,0.2-0.8,0.2c-0.6,0-1-0.3-1-1.1c-0.6,0.7-1.5,1.1-2.4,1.1
					c-1.2,0-2.3-0.6-2.3-1.9c0-1.5,1.2-1.9,2.3-2.1c1.2-0.2,2.3-0.2,2.3-1c0-1-0.8-1.1-1.5-1.1c-1,0-1.7,0.3-1.7,1.3h-1.1
					c0.1-1.7,1.4-2.3,2.9-2.3c1.2,0,2.6,0.3,2.6,1.9v3.5c0,0.5,0,0.8,0.4,0.8c0.1,0,0.2,0,0.3-0.1L127.3,63z M125.5,59.5
					c-0.7,0.3-1.3,0.4-2.1,0.5c-0.7,0.1-1.4,0.4-1.4,1.2c0,0.7,0.6,1,1.3,1c1.5,0,2.1-0.9,2.1-1.5V59.5z M124.3,53.3h1.4l-1.7,1.9
					h-0.8L124.3,53.3z"/>
				<path id="Path_39" class="st0" d="M6.3,55.4c0-1.9,0-2.3,0-2.7c0-0.4-0.1-0.6-0.5-0.7c-0.2,0-0.3,0-0.5,0c-0.1,0-0.2,0-0.2-0.1
					c0-0.1,0.1-0.1,0.3-0.1c0.7,0,1.5,0,1.7,0c0.6,0,1.1,0,1.5,0c2.3,0,2.7,1.2,2.7,1.9c0,0.9-0.5,1.7-1.3,2.2
					c1.3,0.3,2.2,1.4,2.3,2.7c0,1.4-1.1,2.8-3.4,2.8c-0.1,0-0.5,0-0.9,0s-0.8,0-0.9,0c-0.1,0-0.4,0-0.7,0s-0.6,0-0.9,0
					c-0.2,0-0.2,0-0.2-0.1c0-0.1,0.1-0.1,0.2-0.1c0.2,0,0.3,0,0.4,0c0.2,0,0.3-0.3,0.4-0.7c0.1-0.5,0.1-1.5,0.1-2.7L6.3,55.4z
					 M7.8,55.6c0,0.1,0,0.1,0.1,0.1c0.2,0,0.4,0,0.6,0c0.3,0,0.6,0,0.9-0.2c0.4-0.3,0.6-0.8,0.5-1.3c0-0.8-0.5-2-1.6-2
					c-0.1,0-0.3,0-0.4,0c-0.1,0-0.1,0.1-0.1,0.2L7.8,55.6z M9.4,56.6c-0.3-0.2-0.7-0.3-1.1-0.3c-0.2,0-0.4,0-0.5,0
					c-0.1,0-0.1,0-0.1,0.1v3c0,0.8,0,1,0.4,1.2c0.3,0.1,0.6,0.2,0.9,0.2c0.8,0,1.5-0.6,1.5-1.4c0-0.1,0-0.1,0-0.2
					C10.7,58.1,10.2,57.2,9.4,56.6"/>
				<path id="Path_40" class="st0" d="M13.9,56.2c0-1.6,0-1.9,0-2.3c0-0.4-0.1-0.5-0.4-0.6c-0.1,0-0.3,0-0.4,0c-0.1,0-0.2,0-0.2-0.1
					c0-0.1,0.1-0.1,0.3-0.1c0.4,0,1.2,0,1.5,0c0.3,0,1,0,1.4,0c0.1,0,0.2,0,0.2,0.1c0,0.1-0.1,0.1-0.2,0.1c-0.1,0-0.2,0-0.3,0
					c-0.3,0-0.4,0.2-0.4,0.6c0,0.3,0,0.6,0,2.3v1.9c0,1,0,1.9,0.1,2.3c0,0.3,0.1,0.5,0.4,0.5c0.2,0,0.4,0,0.6,0
					c0.1,0,0.2,0.1,0.2,0.1c0,0.1-0.1,0.1-0.2,0.1c-0.7,0-1.5,0-1.8,0c-0.2,0-1,0-1.4,0c-0.1,0-0.2,0-0.2-0.1c0,0,0-0.1,0.2-0.1
					c0.1,0,0.3,0,0.4,0c0.2,0,0.3-0.2,0.3-0.5C14,60,14,59.2,14,58.1L13.9,56.2z"/>
				<path id="Path_41" class="st0" d="M18.3,56.2c0-1.6,0-1.9,0-2.3c0-0.4-0.1-0.5-0.5-0.6c-0.1,0-0.3,0-0.4,0c-0.1,0-0.2,0-0.2-0.1
					s0.1-0.1,0.2-0.1c0.6,0,1.3,0,1.5,0c0.5,0,1.3,0,1.7,0c2,0,2.4,1,2.4,1.6c-0.1,0.8-0.5,1.5-1.2,1.9c1.1,0.3,1.9,1.2,2,2.3
					c0,1.2-0.9,2.3-3,2.3c-0.1,0-0.5,0-0.9,0s-0.8,0-1,0c-0.1,0-0.4,0-0.6,0c-0.3,0-0.5,0-0.8,0c-0.1,0-0.2,0-0.2-0.1
					c0,0,0-0.1,0.2-0.1c0.1,0,0.3,0,0.4,0c0.2,0,0.3-0.2,0.3-0.6c0-0.5,0-1.3,0-2.3L18.3,56.2z M19.7,56.4c0,0.1,0,0.1,0.1,0.1
					c0.2,0,0.3,0,0.5,0c0.3,0,0.6,0,0.9-0.2c0.3-0.3,0.5-0.7,0.5-1.1c0.1-0.8-0.5-1.5-1.4-1.6c0,0,0,0,0,0c-0.2,0-0.3,0-0.5,0
					c-0.1,0-0.1,0.1-0.1,0.2V56.4z M19.7,59.6c0,0.7,0,0.9,0.4,1c0.2,0.1,0.5,0.1,0.8,0.1c0.7,0,1.4-0.5,1.4-1.3c0-0.1,0-0.2,0-0.2
					c0-0.8-0.4-1.5-1-1.9c-0.3-0.2-0.6-0.3-1-0.3h-0.5c0,0-0.1,0-0.1,0.1V59.6z"/>
				<path id="Path_42" class="st0" d="M26.6,58.1c0,1.4,0,2.1,0.2,2.3c0.2,0.2,0.6,0.2,1.5,0.2c0.6,0,1,0,1.3-0.3
					c0.1-0.2,0.2-0.4,0.3-0.6c0-0.1,0-0.2,0.1-0.2c0.1,0,0.1,0.1,0.1,0.2c0,0.4-0.1,0.8-0.2,1.2c-0.1,0.2-0.1,0.3-0.7,0.3
					c-0.8,0-1.4,0-2,0c-0.6,0-1,0-1.5,0c-0.1,0-0.4,0-0.6,0s-0.5,0-0.8,0c-0.1,0-0.2,0-0.2-0.1c0,0,0-0.1,0.2-0.1c0.1,0,0.3,0,0.4,0
					c0.2,0,0.3-0.2,0.3-0.6c0-0.5,0-1.3,0-2.3v-1.9c0-1.6,0-1.9,0-2.3c0-0.4-0.1-0.5-0.5-0.6c-0.1,0-0.2,0-0.4,0
					c-0.1,0-0.2,0-0.2-0.1s0.1-0.1,0.2-0.1c0.5,0,1.2,0,1.5,0c0.3,0,1.2,0,1.6,0c0.2,0,0.2,0,0.2,0.1s-0.1,0.1-0.2,0.1
					c-0.1,0-0.3,0-0.4,0c-0.3,0-0.4,0.2-0.4,0.6c0,0.3,0,0.6,0,2.3L26.6,58.1z"/>
				<path id="Path_43" class="st0" d="M29.9,57.2c0-2.3,1.9-4.2,4.3-4.2c0.1,0,0.3,0,0.4,0c2.8,0,4.5,1.5,4.5,4
					c0,2.4-1.9,4.4-4.3,4.4c-0.1,0-0.3,0-0.4,0c-2.3,0.2-4.3-1.5-4.5-3.8C29.9,57.5,29.9,57.3,29.9,57.2 M37.4,57.4
					c0.2-1.9-1.1-3.6-3-3.8c-0.1,0-0.2,0-0.3,0c-1.2,0-2.7,0.7-2.7,3.3c-0.2,1.9,1.1,3.7,3.1,3.9c0.1,0,0.2,0,0.3,0
					C35.6,60.8,37.4,60.5,37.4,57.4"/>
				<path id="Path_44" class="st0" d="M40,55.4c0-1.9,0-2.3,0-2.7c0-0.4-0.1-0.6-0.5-0.7c-0.2,0-0.3,0-0.5,0c-0.1,0-0.2,0-0.2-0.1
					s0.1-0.1,0.3-0.1c0.7,0,1.5,0,1.7,0c0.4,0,1.4,0,1.8,0c0.8-0.1,1.6,0.1,2.3,0.5c0.5,0.4,0.9,1,0.9,1.7c-0.1,1.2-0.7,2.2-1.7,2.8
					c1.1,1.4,2,2.5,2.7,3.3c0.4,0.4,0.9,0.7,1.4,0.9c0.1,0,0.2,0,0.3,0c0.1,0,0.2,0,0.2,0.1c0,0.1-0.1,0.1-0.2,0.1h-1.2
					c-0.5,0-0.9,0-1.4-0.2c-0.7-0.5-1.3-1.1-1.7-1.8c-0.5-0.7-1.1-1.5-1.2-1.7c-0.1-0.1-0.1-0.1-0.2-0.1l-1.1,0
					c-0.1,0-0.1,0-0.1,0.1v0.2c0,1.2,0,2.2,0.1,2.7c0,0.4,0.1,0.6,0.5,0.7c0.2,0,0.4,0,0.6,0c0.1,0,0.2,0,0.2,0.1
					c0,0.1-0.1,0.1-0.2,0.1c-0.7,0-1.7,0-1.8,0c-0.2,0-1,0-1.5,0c-0.2,0-0.2,0-0.2-0.1c0-0.1,0-0.1,0.2-0.1s0.3,0,0.5,0
					c0.2,0,0.3-0.3,0.4-0.7c0.1-0.5,0.1-1.5,0.1-2.7L40,55.4z M41.5,56.4c0,0.1,0,0.2,0.1,0.2c0.3,0.1,0.6,0.1,1,0.1
					c0.3,0,0.6,0,0.9-0.2c0.5-0.5,0.8-1.2,0.7-1.9c0.2-1.1-0.6-2.1-1.7-2.3c-0.1,0-0.2,0-0.2,0c-0.2,0-0.5,0-0.7,0
					c-0.1,0-0.1,0.1-0.1,0.2L41.5,56.4z"/>
				<path id="Path_45" class="st0" d="M48.9,56.2c0-1.6,0-1.9,0-2.3c0-0.4-0.1-0.5-0.5-0.6c-0.2,0-0.3,0-0.4,0c-0.1,0-0.2,0-0.2-0.1
					s0.1-0.1,0.2-0.1c0.6,0,1.3,0,1.6,0c0.3,0,2.8,0,3,0c0.2,0,0.3,0,0.5-0.1c0.1,0,0.1,0,0.2,0c0.1,0,0.1,0,0.1,0.1
					c0,0.2-0.1,0.5-0.1,0.7c0,0.1,0,0.6-0.1,0.7c0,0,0,0.2-0.1,0.2s-0.1,0-0.1-0.1c0-0.1,0-0.3-0.1-0.4c-0.1-0.2-0.2-0.3-0.7-0.4
					c-0.2,0-1.5,0-1.7,0c0,0-0.1,0-0.1,0.1v2.7c0,0.1,0,0.1,0.1,0.1c0.2,0,1.7,0,1.9,0c0.2,0,0.4,0,0.5-0.2c0.1-0.1,0.1-0.1,0.2-0.1
					s0.1,0,0.1,0.1s0,0.2-0.1,0.8c0,0.2,0,0.6,0,0.7s0,0.2-0.1,0.2c-0.1,0-0.1,0-0.1-0.1c0-0.1,0-0.2,0-0.4
					c-0.1-0.2-0.2-0.4-0.6-0.4c-0.2,0-1.5,0-1.7,0c0,0-0.1,0-0.1,0.1v0.9c0,0.4,0,1.3,0,1.6c0,0.7,0.4,0.9,1.5,0.9
					c0.3,0,0.7,0,1-0.1c0.3-0.1,0.4-0.3,0.5-0.8c0-0.1,0-0.2,0.1-0.2s0.1,0.1,0.1,0.2c0,0.4-0.1,0.8-0.2,1.2
					c-0.1,0.3-0.2,0.3-0.6,0.3c-0.8,0-1.5,0-2,0c-0.5,0-1,0-1.3,0c-0.1,0-0.4,0-0.6,0s-0.5,0-0.8,0c-0.1,0-0.2,0-0.2-0.1
					c0,0,0-0.1,0.2-0.1c0.1,0,0.3,0,0.4,0c0.2,0,0.3-0.2,0.3-0.6c0-0.5,0-1.3,0-2.3L48.9,56.2z"/>
				<path id="Path_46" class="st0" d="M54.8,56.2c0-1.6,0-1.9,0-2.3c0-0.4-0.1-0.5-0.5-0.6c-0.2,0-0.3,0-0.4,0c-0.1,0-0.2,0-0.2-0.1
					s0.1-0.1,0.2-0.1c0.6,0,1.3,0,1.6,0c0.3,0,1.1,0,1.8,0c1.6-0.2,3.2,0.2,4.5,1.2c0.7,0.7,1.1,1.7,1,2.7c0,1.1-0.4,2.2-1.2,3
					c-1,0.9-2.4,1.3-3.7,1.3c-0.4,0-0.9,0-1.3-0.1c-0.4,0-0.8-0.1-1.1-0.1c-0.1,0-0.4,0-0.6,0s-0.5,0-0.8,0c-0.1,0-0.2,0-0.2-0.1
					c0,0,0-0.1,0.2-0.1c0.1,0,0.3,0,0.4,0c0.2,0,0.3-0.2,0.3-0.6c0-0.5,0-1.3,0-2.3L54.8,56.2z M56.3,57.4c0,1.1,0,2,0,2.2
					c0,0.3,0,0.5,0.1,0.8c0.1,0.2,0.6,0.4,1.5,0.4c0.9,0.1,1.7-0.2,2.4-0.7c0.7-0.7,1-1.7,1-2.7c0-1-0.3-2-1-2.7
					c-0.9-0.7-2-1.1-3.1-1c-0.2,0-0.5,0-0.7,0.1c-0.1,0-0.2,0.1-0.1,0.2c0,0.4,0,1.2,0,2.1L56.3,57.4z"/>
				<path id="Path_47" class="st0" d="M40.1,32.2L40.1,32.2h0.1l0,0.2h0.6l0-0.1v0c0-0.1,0-0.1,0-0.2c0-0.3-0.1-0.6-0.3-0.8
					c-0.3-0.3-0.6-0.4-1-0.4c-0.1,0-0.2,0-0.2,0l-0.1,0l0,0.1c0,0.1,0,0.1,0,0.2c0,0.3,0.1,0.6,0.3,0.8C39.7,32,39.9,32.1,40.1,32.2
					"/>
				<path id="Path_48" class="st0" d="M36.9,34.3l0.3,0.2l0,0c0,0.2-0.1,0.5-0.1,0.8v0.1c0.1,1.1,0.3,2.2,0.7,3.3
					c0.3,0.8,0.5,1.7,0.6,2.6c0,0.3-0.1,0.6-0.2,0.9l-0.4,0.5l0.6-0.2l0.2-0.1c0,0,0.1,0,0.1,0l0,0l0,0h0l0.1,0v0l0,0l0,0l0,0
					c0,0,0,0,0,0c0.3-0.4,0.4-0.9,0.4-1.5c-0.1-1.1-0.5-2.2-1-3.2c-0.3-0.7-0.5-1.5-0.5-2.3c0-0.1,0-0.2,0-0.2
					c0.2,0.1,0.4,0.2,0.6,0.3c0.6,0.3,0.7,1.4,0.7,1.6c0,0.1,0,0.1,0,0.2l0,0.2l0.7,0.2l0-0.2c0-0.2,0.1-0.4,0-0.6
					c0-0.2,0-0.4,0-0.6c-0.1-0.5-0.3-0.9-0.5-1.3l-0.1-0.1h-0.1c-0.3,0-0.5-0.1-0.7-0.3c-0.8-0.6-1.2-1.5-1.2-2.5
					c0-0.7,0.2-1.3,0.6-1.9c0.2-0.3,0.4-0.5,0.6-0.8l0.2-0.2l-0.7-0.4l-0.1,0.1l0,0c-0.9,0.9-1.5,2-1.6,3.3c0,0,0,0.1,0,0.2
					C36.1,33.1,36.4,33.8,36.9,34.3"/>
				<path id="Path_49" class="st0" d="M54.9,15.4c-0.2,0-0.4,0.1-0.6,0.2l0,0l-0.1,0.1c-0.9,0.7-2,1.6-3.2,2.5
					c0.1-0.3,0.2-0.6,0.4-0.9l0.4-1.1l0,0l0,0c0.2-0.6-0.1-1.2-0.6-1.4c-0.3-0.1-0.7-0.1-1,0.1v0l0,0c-0.7,0.4-1.3,0.8-2,1.3
					l0.7-2.5l0-0.1l0,0c0-0.1,0-0.1,0-0.2c0-0.6-0.5-1.1-1.1-1.1c-0.2,0-0.4,0.1-0.6,0.2l0,0c-0.7,0.4-1.3,0.9-2,1.4l0.3-2.4v-0.1
					l0,0c0,0,0-0.1,0-0.1c0-0.6-0.5-1.1-1.1-1.1c-0.2,0-0.4,0.1-0.5,0.1l0,0l0,0c-2.6,1.6-4.7,3.9-6.1,6.5c-1.5,2.9-2.5,6.1-3,9.4
					c-0.3,0.1-0.6,0.2-0.8,0.4c-0.7-3.5-2-6.9-3.8-10.1c-1.6-2.6-3.8-4.7-6.4-6.2l0,0c-0.1-0.1-0.3-0.1-0.5-0.1
					c-0.6,0-1.1,0.5-1.1,1.1c0,0.1,0,0.1,0,0.2l0.4,2.3c-0.6-0.4-1.2-0.8-1.8-1.2l0,0c-0.2-0.1-0.3-0.1-0.5-0.1
					c-0.6,0-1.1,0.5-1.1,1.1c0,0.1,0,0.1,0,0.2l0.6,2.5c-0.6-0.4-1.2-0.8-1.8-1.1c-0.2-0.1-0.3-0.1-0.5-0.1c-0.6,0-1.1,0.5-1.1,1.1
					c0,0.1,0,0.2,0,0.3c0.2,0.8,0.5,1.9,0.7,2.4c-3.2-2.7-3.5-2.9-3.5-3c-0.5-0.4-1.1-0.3-1.5,0.2c-0.2,0.2-0.2,0.4-0.2,0.7
					c0,0.1,0,0.2,0,0.2l0.1,0.3c0.1,0.3,0.1,0.6,0.3,1.3c1.7,7.1,5,20.7,5,20.9c0.1,0.3,0.2,0.5,0.4,0.7l15.7,10.2
					c0.3,0.2,0.8,0.2,1.2,0l15.9-10.1c0.2-0.2,0.4-0.4,0.5-0.6l0,0l0.5-2.2c0.5-2.4,1.4-6.2,2.2-10l0-0.2c0.8-3.8,1.7-7.8,2.2-10.2
					c0-0.1,0-0.2,0-0.3C55.9,15.9,55.5,15.4,54.9,15.4 M34.4,37.1L34.4,37.1c0-1.1,0.1-1.8,0.1-2.1c0.1-0.5,0.2-1,0.4-1.5l0.1-0.1
					l-0.7-0.5L34.2,33c-0.1,0.3-0.3,0.6-0.4,0.9c-0.2,1-0.4,2-0.4,3v0.1l0,0c0,0.3,0,1.8,0,3.7c0,2.8,0,6.5,0,8.3l-15-10.2l-4.8-21
					l15.9,12.6c-0.6,1-1.2,2-1.5,3.1l0,0.1l0.6,0.5l0.1-0.2c0.4-1,0.9-2,1.5-2.9l1,0.8l0.1-0.2c0.1-0.1,0.1-0.2,0.2-0.3l0.1-0.2
					l-0.2-0.1c-0.1,0-0.4-0.3-0.7-0.6l-0.1-0.1c0.1-0.1,0.3-0.3,0.4-0.5c0.3,0.5,0.6,0.9,0.6,1c0,0,0,0,0,0l0,0l0,0c0,0,0,0,0.1,0
					c0,0,0,0,0.1,0l0.2-0.1l0.2-0.3l0.1-0.1l-0.1-0.1l0,0c-0.1-0.1-0.5-0.9-0.6-1c0.1-0.1,0.2-0.2,0.4-0.3c0.2,0.5,0.3,0.8,0.4,1
					c0,0,0,0.1,0,0.1l0.1,0.3l0.7-0.6l0-0.1l0,0c0,0,0,0,0,0c0-0.1-0.2-0.5-0.4-1.1l0.3-0.2c0.2,0.7,0.2,1.1,0.2,1.1l0.1,0.3
					l0.8-0.6l0-0.1c0,0-0.1-0.5-0.2-1.2c0.2-0.1,0.3-0.2,0.5-0.2c-0.1,0.7-0.1,1.1-0.1,1.1l0,0.3l0.3-0.2c0.1,0,0.1-0.1,0.2-0.1
					c0.1,0,0.2-0.1,0.3-0.1l0.1,0l0-0.1c0,0,0-0.5,0.2-1.3c0.2-0.1,0.4-0.1,0.6-0.2c-0.2,0.6-0.3,1-0.3,1l-0.1,0.3l1-0.2l0-0.1
					c0,0,0,0,0,0c0.2-0.5,0.3-0.9,0.5-1.2c0.2,0,0.3,0,0.5-0.1c-0.2,0.3-0.4,0.6-0.5,0.9L37,27.9l0.4-0.1c0.1,0,0.1,0,0.2,0
					c0.1,0,0.2,0,0.3,0l0.1,0l0-0.1c0,0,0.3-0.5,0.9-1.2H39c0.3,0,0.6,0,0.9,0l-0.2,0.4c-0.2,0.2-0.4,0.3-0.5,0.4l-0.2,0.1l-0.4,0.4
					H39c0,0,0.1,0,0.1,0l0.1,0c0.2,0,0.3,0,0.4,0.1l0.1,0l1.7-1.2c0.1,0,0.2,0,0.2,0c-0.2,0.2-0.4,0.4-0.5,0.6
					c-0.2,0.2-0.3,0.5-0.3,0.8c0,0,0,0.1,0.1,0.1l0,0l0,0c0.2,0.1,0.3,0.1,0.4,0.2l0.2,0.1l0-0.1c0,0.1,0,0.2,0,0.3
					c0,0.9,0.1,1.7,0.3,2.5c0.2,0.8,0.3,1.6,0.3,2.4c0,0.7-0.1,1.5-0.3,2.2l-0.4,0c0,0,0,0,0,0c-0.4,0-0.8,0.3-0.9,0.6
					c-0.2,0.3-0.4,0.7-0.4,1.1l0,0.1l0.1,0.1c0.1,0.1,0.3,0.1,0.5,0.1c0.6,0,1.1-0.3,1.5-0.8c0.8-1,1.1-2.2,1-3.4c0-0.7,0-1.3-0.2-2
					c-0.2-1.2-0.4-2.4-0.4-3.5c0-0.2,0-0.4,0-0.6c0-0.3,0.2-0.6,0.3-0.9c0.1-0.1,0.1-0.2,0.2-0.3l0,0l0.3-0.2L42.9,26
					c0,0-0.1,0-0.3-0.1l11.5-8l-4.3,21L34.4,49.1c0-1.9,0-6.5,0-9.5v-2.5C34.4,37.2,34.4,37.1,34.4,37.1 M32.6,27.5
					c-1.4-3.4-3.2-6.5-5.4-9.4c-1-1.2-2.1-2.3-3.4-3.3l-0.5-3c2.2,1.3,4,3,5.4,5.1c1.6,2.5,2.9,5.2,3.7,8.1c0.2,0.7,0.4,1.5,0.6,2.2
					C32.9,27.3,32.8,27.4,32.6,27.5 M31.8,28.1c-0.1,0.1-0.3,0.3-0.5,0.4c-2-3.2-4.4-6.1-7.1-8.7c-1-0.9-2-1.7-3.1-2.4l-0.8-3.2
					c2,1.2,3.9,2.6,5.5,4.4c1.9,2.2,3.6,4.7,4.9,7.4C31.1,26.6,31.5,27.3,31.8,28.1 M29,26.9c0.6,0.7,1.1,1.5,1.6,2.2
					c-0.2,0.2-0.4,0.4-0.6,0.7c-0.5-0.4-1.1-0.9-1.8-1.5c-2.6-2.2-6.5-5.4-9.5-8.1l-1.1-3.6c1.9,1.1,3.6,2.3,5.3,3.7
					C25.3,22.3,27.3,24.5,29,26.9 M41.7,36.1c-0.1,0.2-0.2,0.5-0.4,0.7c0,0,0-0.1,0-0.2c0-0.1,0.1-0.2,0.1-0.3c0,0,0,0,0,0
					L41.7,36.1C41.7,36.1,41.7,36.1,41.7,36.1 M49.1,19.6c-0.5,0.4-1,0.8-1.5,1.2c-2,1.5-4.1,3.2-5.9,4.6l-0.4,0.3
					c-0.6-0.1-1.1-0.1-1.7-0.1c0.1-0.1,0.1-0.2,0.2-0.3c1.5-1.8,3.2-3.5,5-5c1.7-1.4,3.4-2.6,5.2-3.8L49.1,19.6z M46.6,17.3
					c-1,0.8-2.1,1.6-3,2.5c-2,1.8-3.7,3.8-5.3,5.9c-0.3,0-0.5,0-0.8,0.1c0.1-0.3,0.2-0.5,0.4-0.8c1.1-2.3,2.5-4.4,4.1-6.3
					c1.5-1.8,3.3-3.3,5.3-4.6L46.6,17.3z M44,14.9c-1.2,1-2.2,2.1-3.2,3.4c-1.8,2.3-3.2,4.9-4.3,7.6c-0.3,0.1-0.5,0.1-0.7,0.2
					c0.1-0.4,0.2-0.8,0.3-1.3c0.7-2.7,1.7-5.2,3.1-7.6c1.3-2.1,3.1-4,5.2-5.4L44,14.9z"/>
				<rect id="Rectangle_15" x="75.4" y="3.2" class="st0" width="0.5" height="67.8"/>
				<rect id="Rectangle_16" x="177.4" y="3.2" class="st0" width="0.5" height="67.8"/>
				<path id="Path_50" class="st0" d="M192,10.9h10.7c5.6,0,6.6,4.1,6.6,6c0.1,2.2-1.2,4.2-3.3,5c1.7,0.8,2.7,1.4,2.7,5.4
					c0,3.1,0,3.9,0.9,4.2V32h-4.9c-0.4-1.4-0.5-2.8-0.5-4.3c0-2.9-0.2-4-3.4-4h-4.6V32H192L192,10.9L192,10.9z M201.5,20.2
					c2.3,0,3.4-0.8,3.4-2.9c0-1.1-0.5-2.8-3.1-2.8h-5.5v5.6C196.3,20.2,201.5,20.2,201.5,20.2z"/>
				<path id="Path_51" class="st0" d="M224.5,27.4c-0.8,3.1-3.7,5.2-6.9,5c-4.4,0-7.8-2.1-7.8-8.5c0-1.9,0.6-7.9,7.5-7.9
					c3.1,0,7.3,1.5,7.3,8.6v0.7H214c0.1,1.2,0.4,3.8,3.7,3.8c1.2,0.1,2.2-0.6,2.6-1.7C220.3,27.4,224.5,27.4,224.5,27.4z
					 M220.5,22.6c0.1-1.8-1.3-3.2-3-3.3c-0.1,0-0.1,0-0.1,0c-1.9,0-3,1.2-3.2,3.3H220.5z"/>
				<path id="Path_52" class="st0" d="M230.1,18.6L230.1,18.6c1-1.7,2.8-2.8,4.7-2.7c3.4,0,6.5,2.6,6.5,8c0,4.3-1.9,8.4-6.6,8.4
					c-1.8,0.2-3.6-0.8-4.4-2.4h-0.1V38h-4.1V16.3h3.9V18.6z M233.7,29c2.6,0,3.4-2.9,3.4-4.7c0-2.5-0.9-4.8-3.5-4.8
					c-2.8,0-3.5,2.5-3.5,5C230.1,26.8,231.1,29,233.7,29"/>
				<path id="Path_53" class="st0" d="M250.1,32.4c-4.2,0-8-2.6-8-8.2s3.8-8.2,8-8.2s8,2.6,8,8.2S254.3,32.4,250.1,32.4 M250.1,19.4
					c-3.2,0-3.8,2.8-3.8,4.8s0.6,4.8,3.8,4.8s3.8-2.8,3.8-4.8S253.3,19.4,250.1,19.4"/>
				<path id="Path_54" class="st0" d="M268.6,21.1c-0.2-1-0.5-2.1-2.8-2.1s-2.5,0.9-2.5,1.5c0,2.5,9.8,0.7,9.8,6.4
					c0,4.6-4.4,5.4-6.8,5.4c-3.5,0-7.4-1.2-7.5-5.4h4.2c0,1.3,0.8,2.3,3.4,2.3c2.1,0,2.6-1,2.6-1.6c0-2.6-9.7-0.6-9.7-6.5
					c0-2.3,1.4-5.2,6.3-5.2c3.1,0,6.7,0.8,7,5.2L268.6,21.1L268.6,21.1z"/>
				<path id="Path_55" class="st0" d="M279.2,14.5h-4.1v-3.8h4.1V14.5z M279.2,32h-4.1V16.3h4.1V32z"/>
				<path id="Path_56" class="st0" d="M286.6,16.3h2.6v2.9h-2.6v8.5c0,0.9,0,1.3,1.7,1.3c0.3,0,0.6,0,0.9-0.1v3.1
					c-0.6,0-1.3,0.1-1.9,0.1h-0.5c-3.5,0-4.2-1.4-4.2-3.4v-9.5h-2.1v-2.9h2.1v-4.2h4.1L286.6,16.3z"/>
				<path id="Path_57" class="st0" d="M297.1,32.4c-4.2,0-8-2.6-8-8.2s3.8-8.2,8-8.2s8,2.6,8,8.2S301.2,32.4,297.1,32.4 M297.1,19.4
					c-3.2,0-3.8,2.8-3.8,4.8s0.6,4.8,3.8,4.8s3.8-2.8,3.8-4.8S300.2,19.4,297.1,19.4"/>
				<path id="Path_58" class="st0" d="M306.7,16.3h3.9V19h0.1c0.9-1.6,1.8-3.1,4.3-3.1c0.3,0,0.5,0,0.8,0.1v4.2
					c-0.4,0-0.8-0.1-1.2-0.1c-1.8-0.3-3.5,1-3.8,2.8c0,0.3,0,0.6,0,0.9V32h-4.1L306.7,16.3z"/>
				<path id="Path_59" class="st0" d="M320.8,14.5h-4.1v-3.8h4.1V14.5z M320.8,32h-4.1V16.3h4.1V32z"/>
				<path id="Path_60" class="st0" d="M330.6,32.4c-4.2,0-8-2.6-8-8.2s3.8-8.2,8-8.2s8,2.6,8,8.2S334.8,32.4,330.6,32.4 M330.6,19.4
					c-3.2,0-3.8,2.8-3.8,4.8s0.6,4.8,3.8,4.8s3.8-2.8,3.8-4.8S333.8,19.4,330.6,19.4"/>
				<path id="Path_61" class="st0" d="M205.9,63.3h-4v-2h-0.1c-0.9,1.6-2.7,2.5-4.5,2.4c-4.6,0-6.6-4.1-6.6-8.4c0-5.4,3.1-8,6.5-8
					c1.8-0.1,3.6,0.9,4.5,2.4h0.1v-7.5h4.1L205.9,63.3L205.9,63.3z M198.4,60.3c2.6,0,3.6-2.2,3.6-4.5c0-2.5-0.7-5-3.5-5
					c-2.6,0-3.5,2.3-3.5,4.8C195,57.5,195.7,60.3,198.4,60.3"/>
				<path id="Path_62" class="st0" d="M212.7,45.8h-4.1V42h4.1V45.8z M212.7,63.3h-4.1V47.7h4.1V63.3z"/>
				<path id="Path_63" class="st0" d="M229.8,47.7v14.8c0,2.7-0.2,7.2-7.9,7.2c-3.2,0-6.6-1.4-6.8-4.7h4.5c0.2,0.8,0.5,1.6,2.9,1.6
					c2.2,0,3.3-1.1,3.3-3.6v-1.9l-0.1-0.1c-0.8,1.6-2.4,2.5-4.2,2.3c-3.8,0-6.7-2.6-6.7-8.1c0-5.4,3.1-8,6.5-8
					c1.9-0.1,3.8,1,4.6,2.7h0.1v-2.3L229.8,47.7z M222.2,59.9c2.8,0,3.5-2.4,3.5-4.5c0-2.5-1.2-4.6-3.5-4.6c-1.5,0-3.2,1.1-3.2,4.8
					C218.9,57.6,219.7,59.9,222.2,59.9"/>
				<path id="Path_64" class="st0" d="M236.4,45.8h-4.1V42h4.1V45.8z M236.4,63.3h-4.1V47.7h4.1V63.3z"/>
				<path id="Path_65" class="st0" d="M243.8,47.7h2.6v2.9h-2.6v8.5c0,0.9,0,1.3,1.7,1.3c0.3,0,0.6,0,0.9-0.1v3.1
					c-0.6,0-1.3,0.1-1.9,0.1h-0.5c-3.6,0-4.2-1.4-4.2-3.4v-9.5h-2.1v-2.9h2.1v-4.2h4.1L243.8,47.7z"/>
				<path id="Path_66" class="st0" d="M260.5,60.3c0,1.8,0.4,2.3,0.9,2.4v0.6h-4.4c-0.2-0.6-0.3-1.2-0.4-1.8
					c-1.2,1.5-3.1,2.3-5.1,2.3c-2.4,0.2-4.5-1.6-4.8-4c0-0.2,0-0.4,0-0.6c-0.1-2.6,1.9-4.9,4.6-5c0,0,0,0,0,0l3.7-0.6
					c0.6-0.1,1.4-0.3,1.4-1.2c0-1.7-1.6-1.8-2.7-1.8c-1.2-0.2-2.3,0.7-2.5,1.9c0,0.1,0,0.2,0,0.3h-4c0.5-4.8,3.8-5.5,7-5.5
					c2.2,0,6.2,0.7,6.2,4.5L260.5,60.3z M256.4,55.7c-0.9,0.5-1.8,0.8-2.8,0.8c-1.5,0.3-2.8,0.7-2.8,2.3c-0.1,1,0.7,1.8,1.7,1.9
					c0.1,0,0.1,0,0.2,0c1.9,0.2,3.5-1.2,3.7-3.1L256.4,55.7z"/>
				<rect id="Rectangle_17" x="263.1" y="42.2" class="st0" width="4.1" height="21.1"/>
			</g>
		</g>
	</g>
</g>
</svg>
